<?xml version="1.0" encoding="UTF-8" standalone="no"?>
<!-- Created with Inkscape (http://www.inkscape.org/) -->

<svg
   width="55mm"
   height="238.07346mm"
   viewBox="0 0 55 238.07345"
   version="1.1"
   id="svg25510"
   xmlns="http://www.w3.org/2000/svg"
   xmlns:svg="http://www.w3.org/2000/svg">
  <defs
     id="defs25507" />
  <rect
     style="fill:#ffffff;stroke-width:1.6288;stroke-linejoin:bevel;stroke-dasharray:1.6288, 3.25762;stroke-dashoffset:4.39777;paint-order:markers fill stroke;stop-color:#000000"
     id="rect25593"
     width="55"
     height="183.33334"
     x="0"
     y="54.740112" />
  <path
     id="barcode1_bar1"
     style="fill:#000000;stroke-width:0.675161"
     d="m 0,84.120747 v 0.299722 0.300242 4.945951 H 8.0258665 V 84.720711 H 54.999744 v -0.599964 z m 5.6094767,1.107942 c 0.1998975,0 0.3824256,0.04026 0.5472533,0.120923 0.1683348,0.07716 0.3100837,0.191299 0.4258138,0.342098 0.1192371,0.147294 0.2124205,0.331483 0.2790529,0.552421 0.066633,0.217435 0.099735,0.467828 0.099735,0.751893 0,0.287573 -0.033103,0.543983 -0.099735,0.768429 -0.066633,0.224446 -0.1598158,0.413616 -0.2790529,0.567923 -0.1157301,0.150799 -0.257479,0.266605 -0.4258138,0.347266 -0.1648277,0.07716 -0.3473558,0.115755 -0.5472533,0.115755 -0.1998975,0 -0.3840864,-0.0386 -0.5524212,-0.115755 -0.1648277,-0.08066 -0.3065766,-0.196467 -0.4258138,-0.347266 -0.11573,-0.154307 -0.2072526,-0.343477 -0.273885,-0.567923 -0.066633,-0.224446 -0.099736,-0.480856 -0.099736,-0.768429 0,-0.284065 0.033103,-0.534458 0.099736,-0.751893 0.066633,-0.220938 0.1581552,-0.405127 0.273885,-0.552421 0.1192372,-0.150799 0.2609861,-0.264943 0.4258138,-0.342098 0.1683348,-0.08066 0.3525237,-0.120923 0.5524212,-0.120923 z m -4.5449422,0.06305 H 3.8421426 V 85.80747 H 2.7584879 v 2.924887 H 2.1481893 V 85.807465 H 1.0645345 Z m 4.5449422,0.468188 c -0.2209393,0 -0.3979688,0.106995 -0.5312339,0.320911 -0.129758,0.213926 -0.1948201,0.518903 -0.1948201,0.915191 0,0.40681 0.065062,0.721122 0.1948201,0.942062 0.1332651,0.217432 0.3102946,0.326078 0.5312339,0.326078 0.2209392,0 0.396308,-0.108646 0.526066,-0.326078 0.1332651,-0.22094 0.199988,-0.535252 0.1999877,-0.942062 3e-7,-0.396288 -0.066723,-0.701265 -0.1999877,-0.915191 -0.129758,-0.213916 -0.3051268,-0.320911 -0.526066,-0.320911 z M 13.428121,89.0729 v 14.07201 h 28.1435 V 89.0729 Z M 0,109.91762 v 0.59997 h 54.999744 v -0.59997 z m 0,22.79499 v 0.59997 h 54.999744 v -0.59997 z m 7.4998005,11.64942 v 39.99962 h 0.5131469 v -39.99962 z m 1.0257771,0 v 39.99962 h 0.513147 v -39.99962 z m 1.0257772,0 v 39.99962 h 0.5126302 v -39.99962 z m 1.0257772,0 v 39.99962 h 0.51263 v -39.99962 z m 1.025777,0 v 39.99962 h 1.025261 v -39.99962 z m 2.051038,0 v 39.99962 h 1.025777 v -39.99962 z m 2.051554,0 v 39.99962 h 0.51263 v -39.99962 z m 1.025261,0 v 39.99962 h 0.513146 v -39.99962 z m 1.025777,0 v 39.99962 h 0.513147 v -39.99962 z m 1.025777,0 v 39.99962 h 1.025777 v -39.99962 z m 2.051554,0 v 39.99962 h 1.025261 v -39.99962 z m 2.051038,0 v 39.99962 h 0.513147 v -39.99962 z m 1.025777,0 v 39.99962 h 1.025777 v -39.99962 z m 1.538407,0 v 39.99962 h 0.513147 v -39.99962 z m 1.538408,0 v 39.99962 h 0.513146 v -39.99962 z m 1.025776,0 v 39.99962 h 0.513149 v -39.99962 z m 1.025779,0 v 39.99962 h 1.025776 v -39.99962 z m 2.051037,0 v 39.99962 h 1.025776 v -39.99962 z m 1.538925,0 v 39.99962 h 1.02526 v -39.99962 z m 1.538406,0 v 39.99962 h 0.512631 v -39.99962 z m 1.538407,0 v 39.99962 h 0.51263 v -39.99962 z m 1.025776,0 v 39.99962 h 0.511599 v -39.99962 z m 1.537375,0 v 39.99962 h 1.025776 v -39.99962 z m 1.538406,0 v 39.99962 h 0.513149 v -39.99962 z m 1.53841,0 v 39.99962 h 1.025776 v -39.99962 z m 2.051552,0 v 39.99962 h 0.512631 v -39.99962 z m 1.025779,0 v 39.99962 h 0.512631 v -39.99962 z m 1.025777,0 v 39.99962 h 1.02526 v -39.99962 z m 1.538406,0 v 39.99962 h 0.51263 V 144.36203 Z M 7.4998005,186.72379 v 0.51263 H 47.499941 v -0.51263 z m 0,1.02526 v 0.51314 H 47.499941 v -0.51314 z m 0,1.02577 v 0.51315 H 47.499941 v -0.51315 z m 0,1.02578 v 0.51263 H 47.499941 v -0.51263 z m 0,1.02578 v 1.02577 H 47.499941 v -1.02577 z m 0,2.05103 v 1.02578 H 47.499941 v -1.02578 z m 0,2.05156 v 0.51263 H 47.499941 v -0.51263 z m 0,1.02578 v 0.51263 H 47.499941 v -0.51263 z m 0,1.02577 v 0.51263 H 47.499941 v -0.51263 z m 0,1.02526 v 1.02578 H 47.499941 v -1.02578 z m 0,2.05156 v 1.02578 H 47.499941 v -1.02578 z m 0,2.05104 v 0.51314 H 47.499941 v -0.51314 z m 0,1.02577 v 1.02578 H 47.499941 v -1.02578 z m 0,1.53841 v 0.51315 H 47.499941 v -0.51315 z m 0,1.53892 v 0.51263 H 47.499941 v -0.51263 z m 0,1.02526 v 0.51315 H 47.499941 v -0.51315 z m 0,1.02578 v 1.02578 H 47.499941 v -1.02578 z m 0,2.05156 v 1.02577 H 47.499941 v -1.02577 z m 0,1.5384 v 1.02578 H 47.499941 v -1.02578 z m 0,1.53841 v 0.51263 H 47.499941 v -0.51263 z m 0,1.53841 v 0.51315 H 47.499941 v -0.51315 z m 0,1.02578 v 0.51211 H 47.499941 v -0.51211 z m 0,1.53737 v 1.02578 H 47.499941 v -1.02578 z m 0,1.53841 V 219.544 H 47.499941 v -0.51314 z m 0,1.53892 v 1.02526 H 47.499941 v -1.02526 z m 0,2.05104 v 0.51315 H 47.499941 v -0.51315 z m 0,1.02578 v 0.51263 H 47.499941 v -0.51263 z m 0,1.02577 v 1.02578 H 47.499941 v -1.02578 z m 0,1.53841 v 0.51263 H 47.499941 v -0.51263 z" />
  <text
     xml:space="preserve"
     style="font-size:4.88486px;line-height:1.35;font-family:'Source Sans Pro';-inkscape-font-specification:'Source Sans Pro, Normal';stroke-width:0.0915916"
     x="1.7166781"
     y="60.208363"
     id="text26883"><tspan
       id="tspan26881"
       style="font-style:normal;font-variant:normal;font-weight:600;font-stretch:normal;font-family:'Source Code Pro';-inkscape-font-specification:'Source Code Pro Semi-Bold';stroke-width:0.0915916"
       x="1.7166781"
       y="60.208363">SMITH/JOHN</tspan><tspan
       style="font-style:normal;font-variant:normal;font-weight:600;font-stretch:normal;font-family:'Source Code Pro';-inkscape-font-specification:'Source Code Pro Semi-Bold';stroke-width:0.0915916"
       x="1.7166781"
       y="66.802925"
       id="tspan27017">123456</tspan><tspan
       style="font-style:normal;font-variant:normal;font-weight:600;font-stretch:normal;font-family:'Source Code Pro';-inkscape-font-specification:'Source Code Pro Semi-Bold';stroke-width:0.0915916"
       x="1.7166781"
       y="73.397484"
       id="tspan27019">NYC 01 JAN 2022</tspan><tspan
       style="font-style:normal;font-variant:normal;font-weight:600;font-stretch:normal;font-family:'Source Code Pro';-inkscape-font-specification:'Source Code Pro Semi-Bold';stroke-width:0.0915916"
       x="1.7166781"
       y="79.992043"
       id="tspan27765">SEQ 0001</tspan></text>
  <text
     xml:space="preserve"
     style="font-size:14.1111px;line-height:1.75;font-family:'Source Sans Pro';-inkscape-font-specification:'Source Sans Pro, Normal';text-align:center;text-anchor:middle;fill:#ffffff;stroke-width:0.264583"
     x="27.097822"
     y="100.63865"
     id="text32364"><tspan
       id="tspan32362"
       style="font-style:normal;font-variant:normal;font-weight:600;font-stretch:normal;font-family:'Source Code Pro';-inkscape-font-specification:'Source Code Pro Semi-Bold';text-align:center;text-anchor:middle;fill:#ffffff;stroke-width:0.264583"
       x="27.097822"
       y="100.63865">JFK</tspan></text>
  <text
     xml:space="preserve"
     style="font-style:normal;font-variant:normal;font-weight:500;font-stretch:normal;font-size:4.84798px;line-height:1.75;font-family:'Source Code Pro';-inkscape-font-specification:'Source Code Pro Medium';text-align:center;text-anchor:middle;stroke-width:0.0909"
     x="27.560596"
     y="107.10728"
     id="text37684"><tspan
       id="tspan37682"
       style="font-style:normal;font-variant:normal;font-weight:500;font-stretch:normal;font-family:'Source Code Pro';-inkscape-font-specification:'Source Code Pro Medium';text-align:center;text-anchor:middle;stroke-width:0.0909"
       x="27.560596"
       y="107.10728">AB1234</tspan></text>
  <text
     xml:space="preserve"
     style="font-style:normal;font-variant:normal;font-weight:500;font-stretch:normal;font-size:6.17852px;line-height:1.75;font-family:'Source Code Pro';-inkscape-font-specification:'Source Code Pro Medium';text-align:center;text-anchor:middle;stroke-width:0.115848"
     x="27.642101"
     y="119.6367"
     id="text42093"><tspan
       id="tspan42091"
       style="font-style:normal;font-variant:normal;font-weight:bold;font-stretch:normal;font-family:'Source Code Pro';-inkscape-font-specification:'Source Code Pro Bold';text-align:center;text-anchor:middle;stroke-width:0.115848"
       x="27.642103"
       y="119.6367">AB 0000123456</tspan></text>
  <g
     id="g11570">
    <path
       style="color:#000000;fill:#ffffff;stroke-width:1.56958;stroke-linejoin:bevel;-inkscape-stroke:none;paint-order:markers fill stroke"
       d="M 21.479203,1.1873894e-6 A 2.188951,2.188951 0 0 0 19.291255,2.1888252 V 8.3523916 H 13.237173 V 42.344414 H 41.762827 V 8.3523916 H 35.710499 V 2.1888252 A 2.188951,2.188951 0 0 0 33.519047,1.1873894e-6 Z M 23.66715,4.3767748 h 7.663948 V 8.3523916 H 23.66715 Z M 3.5876044,8.3523916 A 3.5876038,3.5876038 0 0 0 4.5735841e-7,11.939995 V 38.756811 A 3.5876038,3.5876038 0 0 0 3.5876044,42.344414 h 5.397172 V 8.3523916 Z m 42.4276186,0 V 42.344414 h 5.397174 A 3.5876038,3.5876038 0 0 0 55,38.756811 V 11.939995 A 3.5876038,3.5876038 0 0 0 51.412397,8.3523916 Z"
       id="rect3734" />
    <text
       xml:space="preserve"
       style="font-size:9.7205px;line-height:1.75;font-family:'Source Sans Pro';-inkscape-font-specification:'Source Sans Pro, Normal';fill:#000014;fill-opacity:1;stroke-width:0.182259"
       x="27.271561"
       y="28.468685"
       id="text5527"><tspan
         id="tspan5525"
         style="font-style:normal;font-variant:normal;font-weight:600;font-stretch:normal;font-family:'Source Code Pro';-inkscape-font-specification:'Source Code Pro Semi-Bold';text-align:center;text-anchor:middle;fill:#000014;fill-opacity:1;stroke-width:0.182259"
         x="27.271561"
         y="28.468685">999K</tspan></text>
  </g>
  <rect
     style="fill:#00ff00;fill-opacity:1;stroke-width:2.05674;stroke-linecap:butt;stroke-linejoin:round;stroke-miterlimit:4;stroke-dasharray:none;paint-order:markers fill stroke;stop-color:#000000"
     id="rect8902"
     width="5.3751884"
     height="104.76088"
     x="49.624809"
     y="133.31258" />
  <rect
     style="fill:#00ff00;fill-opacity:1;stroke-width:2.05674;stroke-linecap:butt;stroke-linejoin:round;stroke-miterlimit:4;stroke-dasharray:none;paint-order:markers fill stroke;stop-color:#000000"
     id="rect9002"
     width="5.3751884"
     height="104.76088"
     x="0"
     y="133.31258" />
</svg>
