<?xml version="1.0" encoding="UTF-8" standalone="no"?>
<!-- Created with Inkscape (http://www.inkscape.org/) -->

<svg
   width="512"
   height="512"
   viewBox="0 0 512 512"
   version="1.1"
   id="svg5"
   inkscape:version="1.2.1 (9c6d41e410, 2022-07-14)"
   sodipodi:docname="Logo.svg"
   xmlns:inkscape="http://www.inkscape.org/namespaces/inkscape"
   xmlns:sodipodi="http://sodipodi.sourceforge.net/DTD/sodipodi-0.dtd"
   xmlns="http://www.w3.org/2000/svg"
   xmlns:svg="http://www.w3.org/2000/svg">
  <sodipodi:namedview
     id="namedview7"
     pagecolor="#505050"
     bordercolor="#ffffff"
     borderopacity="1"
     inkscape:showpageshadow="0"
     inkscape:pageopacity="0"
     inkscape:pagecheckerboard="1"
     inkscape:deskcolor="#505050"
     inkscape:document-units="px"
     showgrid="false"
     inkscape:zoom="0.88183594"
     inkscape:cx="170.66667"
     inkscape:cy="36.287929"
     inkscape:window-width="1920"
     inkscape:window-height="1057"
     inkscape:window-x="-8"
     inkscape:window-y="-8"
     inkscape:window-maximized="1"
     inkscape:current-layer="layer1" />
  <defs
     id="defs2" />
  <g
     inkscape:label="Layer 1"
     inkscape:groupmode="layer"
     id="layer1">
    <rect
       style="fill:#ffffff;stroke-width:10;stroke-linecap:square;stroke-linejoin:round;paint-order:markers fill stroke;stop-color:#000000"
       id="rect530"
       width="475.14508"
       height="271.02548"
       x="-196.18161"
       y="-252.8815" />
    <path
       id="rect299"
       style="fill:#000000;stroke-width:9.99999;stroke-linecap:square;stroke-linejoin:round;paint-order:markers fill stroke;stop-color:#000000"
       d="m 55.182906,-176.03394 v 17.40867 c 0.961682,-0.0794 1.955088,-0.12353 2.988493,-0.12353 1.735879,0 3.609546,0.21618 5.621577,0.65015 2.051455,0.43397 3.944217,1.10372 5.680085,2.01111 l 0.238382,9.47042 h -4.971431 l -1.952591,-8.04877 c -1.065195,-0.39451 -2.131344,-0.59163 -3.196539,-0.59164 -1.549337,0 -3.017408,0.38918 -4.407976,1.15509 v 15.82883 h 18.61144 v 3.49127 l -2.84113,0.41392 c -0.0395,1.77533 -0.07756,3.55153 -0.117027,5.32684 v 5.38535 2.42504 c -2.051477,1.223 -4.16256,2.09203 -6.332395,2.60491 -2.130379,0.55232 -4.538207,0.82785 -7.220923,0.82785 -0.717098,0 -1.413014,-0.0321 -2.099965,-0.0802 v 15.71615 c 0.419088,-0.0171 0.835923,-0.0346 1.272109,-0.0346 2.169835,0 4.302167,0.25646 6.393078,0.76933 2.090933,0.51287 3.884033,1.24414 5.383195,2.190987 l -0.533119,8.521204 h -6.152521 l -1.066238,-7.043213 c -1.183542,-0.473423 -2.406519,-0.708654 -3.668975,-0.708654 -0.573496,0 -1.114782,0.07501 -1.627529,0.221039 v 9.867011 c 0.360447,0.208213 0.743784,0.416325 1.155093,0.621974 l 2.958146,1.421647 c 2.485444,1.183543 4.49692,2.385293 6.035494,3.608292 1.578064,1.183554 2.72266,2.525222 3.432757,4.024395 0.749575,1.459672 1.124757,3.21467 1.124757,5.266157 0,2.327651 -0.593513,4.41966 -1.777067,6.273887 -1.144086,1.814737 -2.896897,3.25396 -5.263993,4.31911 -2.071205,0.932046 -4.627262,1.456543 -7.665187,1.573349 v 17.308984 H 187.25519 V -176.03391 Z m 0,114.763302 v -3.794668 c -0.39501,0.05903 -0.818158,0.09099 -1.272109,0.09099 -1.972585,0 -3.848438,-0.294582 -5.623741,-0.886364 l -1.181101,-7.457141 h -6.273876 l -0.35542,8.995815 c 1.854227,1.104651 3.986525,1.893106 6.393078,2.36653 2.445987,0.473412 4.773238,0.710818 6.982541,0.710818 0.453695,0 0.896639,-0.0089 1.330628,-0.02596 z m 0,-3.794668 c 1.218417,-0.181948 2.157508,-0.642146 2.812958,-1.386972 0.867934,-1.025738 1.300281,-2.210601 1.300281,-3.551948 0,-1.42026 -0.334882,-2.524534 -1.005555,-3.313566 -0.618068,-0.772577 -1.657554,-1.507018 -3.107684,-2.203988 z m 0,-10.456474 v -12.857668 c -1.022498,-0.590628 -1.844984,-1.19051 -2.457538,-1.803064 -0.828477,-0.828478 -1.241773,-1.973041 -1.241773,-3.432757 0,-1.380803 0.512947,-2.525366 1.538663,-3.432757 0.646707,-0.574839 1.368298,-0.972811 2.160648,-1.198433 v -3.916021 c -4.167353,0.17034 -7.497618,1.17864 -9.971034,3.042672 -2.682704,2.051455 -4.02222,4.891686 -4.02222,8.521204 0,3.353389 0.966509,6.055799 2.899638,8.107287 1.933129,2.051488 4.730863,3.946392 8.39986,5.68226 l 2.607076,1.241773 c 0.03129,0.01476 0.05581,0.03063 0.08666,0.04549 z m 0,-42.35684 v -4.52283 c -0.349628,-0.19681 -0.695073,-0.41376 -1.035891,-0.66314 -1.61752,-1.18355 -2.940137,-3.03816 -3.965876,-5.56307 -0.986292,-2.52488 -1.477991,-5.78053 -1.477991,-9.76515 0,-3.98458 0.512936,-7.21902 1.538674,-9.70447 1.025716,-2.48545 2.367418,-4.29977 4.024384,-5.44387 0.301295,-0.20803 0.607649,-0.39107 0.9167,-0.56129 v -4.52283 c -5.536594,0.45755 -9.888748,2.22795 -13.048382,5.32034 -3.708432,3.5901 -5.563058,8.56044 -5.563058,14.91212 0,4.41858 0.86688,8.16593 2.602748,11.24315 1.735846,3.07721 4.162771,5.40664 7.279431,6.98471 2.571958,1.30225 5.485698,2.05888 8.729261,2.28633 z m 0,-4.52283 c 1.309679,0.73721 2.680863,1.11175 4.113239,1.11175 h 0.236218 0.294737 v -2.66342 c 0,-1.73588 -0.01908,-3.41244 -0.05847,-5.02995 0,-1.65696 -0.01908,-3.33353 -0.05847,-5.02994 l -4.527167,-0.69999 z m 0,-12.31155 v -3.56061 h -0.444264 v 3.49127 z" />
    <path
       id="path441-5"
       style="font-weight:900;font-size:53.3333px;line-height:0.95;font-family:'Source Serif Pro';-inkscape-font-specification:'Source Serif Pro Heavy';fill:#000000"
       d="m -132.07227,-176.03392 v 31.43359 c 2.27945,0.59626 3.8443,2.03123 4.68555,4.31836 1.49332,-1.84886 2.86102,-3.07524 4.10547,-3.67968 1.24444,-0.64 2.59693,-0.96094 4.05468,-0.96094 2.91555,0 4.99579,0.80039 6.24024,2.40039 1.28,1.6 1.91992,3.96487 1.91992,7.09375 v 6.13281 3.89453 c 0,1.45778 0.0172,2.82547 0.0527,4.10547 l 2.24024,0.48047 v 2.7207 h -14.29297 v -2.7207 l 2.02539,-0.5332 c 0.0355,-1.27999 0.0547,-2.64967 0.0547,-4.10742 v -3.83985 -5.38672 c 0,-1.81331 -0.17765,-3.02055 -0.5332,-3.625 -0.35556,-0.60444 -0.99743,-0.9082 -1.92188,-0.9082 -1.13778,0 -2.27434,0.42792 -3.41211,1.28125 0.0355,0.28444 0.0527,0.58625 0.0527,0.90625 0.0355,0.32 0.0527,0.65811 0.0527,1.01367 v 6.71875 3.89453 c 0,1.45778 0.0191,2.84461 0.0547,4.16016 l 2.02539,0.42578 v 2.7207 h -7.4043 v 27.107427 c 1.21782,-0.91782 2.54414,-1.6306 3.99219,-2.11329 1.70666,-0.56887 3.43161,-0.85351 5.17383,-0.85351 2.55997,0 4.67459,0.53294 6.3457,1.59961 1.70666,1.03111 2.98651,2.43707 3.83984,4.21484 0.85334,1.74223 1.2793,3.69635 1.2793,5.86524 0,0.56888 -0.0172,1.06747 -0.0527,1.49414 -0.0355,0.39111 -0.10621,0.83621 -0.21289,1.33398 h -14.82618 c 0.28444,2.59555 1.04853,4.47901 2.29297,5.65235 1.28,1.17331 2.70119,1.75976 4.26563,1.75976 1.35111,0 2.50682,-0.23114 3.46679,-0.69336 0.99556,-0.49778 1.86662,-1.10139 2.61329,-1.8125 l 2.08007,2.02539 c -1.13778,2.16889 -2.70225,3.7525 -4.69336,4.74805 -1.95553,0.99556 -4.24779,1.49219 -6.8789,1.49219 -2.66666,0 -5.04871,-0.55012 -7.14649,-1.65235 -0.54403,-0.29077 -1.05425,-0.61903 -1.53906,-0.97656 v 24.94141 H 0 V -176.03392 Z m 0,107.130857 v -22.08398 c -0.2175,0.16392 -0.43831,0.3222 -0.64844,0.5 -1.38664,1.13777 -2.48886,2.56093 -3.30664,4.26757 -0.81778,1.70667 -1.22656,3.71428 -1.22656,6.0254 0,2.91553 0.60361,5.42371 1.8125,7.52148 0.88997,1.51818 2.01625,2.77181 3.36914,3.76953 z m 0,-49.191407 v -26.50586 c -0.80347,-0.21016 -1.69158,-0.32226 -2.67383,-0.32226 -1.56444,0 -2.9704,0.33811 -4.21484,1.01367 -1.24445,0.67555 -2.48798,1.76058 -3.73242,3.25391 l -0.26758,-3.67969 -0.95898,-0.58789 -11.78711,3.68164 v 2.18555 l 2.88085,0.48047 c 0.0711,0.71108 0.10547,1.33385 0.10547,1.86718 0.0355,0.53334 0.0527,1.10259 0.0527,1.70703 v 2.39844 3.30664 3.83985 c 0,1.42219 -0.0172,2.77471 -0.0527,4.05468 l -2.45312,0.58594 v 2.7207 h 14.7207 v -2.7207 l -2.02734,-0.42578 c -0.0355,-1.31555 -0.0527,-2.70238 -0.0527,-4.16016 v -3.89453 -8.58593 c 0.53334,-0.39112 1.08346,-0.71206 1.65235,-0.96094 0.56888,-0.24889 1.12096,-0.37305 1.65429,-0.37305 1.03112,0 1.70542,0.3553 2.02539,1.06641 0.35556,0.67556 0.53321,1.83126 0.53321,3.46679 v 5.38672 3.83985 c 0,1.45775 -0.0172,2.81024 -0.0527,4.05468 l -2.29297,0.58594 v 2.7207 z m -67.47461,-35.83984 c -6.2933,0 -11.11093,1.63515 -14.45312,4.90625 -3.34222,3.23555 -5.01368,7.71504 -5.01368,13.43945 0,3.98222 0.78127,7.35949 2.34571,10.13282 1.56444,2.77331 3.75166,4.8727 6.56055,6.29492 2.80886,1.42222 6.06199,2.13281 9.75976,2.13281 2.41778,0 4.58784,-0.24832 6.50781,-0.74609 1.95555,-0.46223 3.85817,-1.24544 5.70703,-2.34766 v -2.18555 -4.85351 c 0.0356,-1.59999 0.0699,-3.20078 0.10547,-4.80078 l 2.56055,-0.37305 v -3.14648 h -17.17383 v 3.14648 l 4.48047,0.69336 c 0.0355,1.52888 0.0527,3.03987 0.0527,4.5332 0.0355,1.45777 0.0527,2.96876 0.0527,4.53321 v 2.40039 h -0.26563 -0.21289 c -1.63553,0 -3.18284,-0.53295 -4.64062,-1.59961 -1.45778,-1.06667 -2.64978,-2.73812 -3.57422,-5.01368 -0.88889,-2.27553 -1.33203,-5.20967 -1.33203,-8.80078 0,-3.59108 0.46228,-6.50609 1.38672,-8.74609 0.92444,-2.24 2.13362,-3.87514 3.62695,-4.90625 1.49333,-1.03111 3.09217,-1.54688 4.79883,-1.54688 0.96,1e-5 1.92086,0.17766 2.88086,0.53321 l 1.75976,7.2539 h 4.48047 l -0.21484,-8.53515 c -1.56444,-0.81778 -3.27026,-1.42139 -5.11914,-1.8125 -1.81333,-0.39111 -3.50196,-0.58594 -5.06641,-0.58594 z m 29.59961,9.01172 c -4.30219,0 -7.55535,0.72972 -9.75976,2.1875 -2.1689,1.42222 -3.25391,3.2885 -3.25391,5.59961 0.53333,1.92 1.8858,2.88086 4.05469,2.88086 1.13777,0 2.15017,-0.44509 3.03906,-1.33399 0.88889,-0.92444 1.33398,-2.47174 1.33398,-4.64062 v -1.8125 h 0.37305 0.42578 c 1.67111,0 2.75613,0.42596 3.25391,1.2793 0.53333,0.85331 0.80078,2.4178 0.80078,4.69336 v 1.91992 c -0.60445,0.14222 -1.19088,0.30269 -1.75977,0.48047 -0.56889,0.14222 -1.06747,0.26638 -1.49414,0.37304 -2.87997,0.74667 -5.1207,1.58339 -6.7207,2.50781 -1.56445,0.88889 -2.66664,1.88411 -3.30664,2.98633 -0.60444,1.06667 -0.90625,2.29303 -0.90625,3.67969 0,2.16889 0.62275,3.85751 1.86719,5.06641 1.28,1.20888 2.96865,1.81445 5.0664,1.81445 1.92,0 3.3947,-0.33812 4.42578,-1.01367 1.06667,-0.71111 2.11538,-1.63566 3.14649,-2.77344 0.46222,1.20889 1.19195,2.15062 2.1875,2.82617 1.03111,0.64 2.38163,0.96094 4.05273,0.96094 1.88445,0 3.37825,-0.33812 4.48047,-1.01367 1.13778,-0.71111 2.02602,-1.88398 2.66602,-3.51953 l -1.54492,-0.85352 c -0.32,0.46223 -0.58745,0.78121 -0.80079,0.95899 -0.21333,0.14222 -0.42729,0.21289 -0.64062,0.21289 -0.60445,0 -0.90625,-0.30181 -0.90625,-0.90625 v -12.21289 c 0,-3.66222 -0.76408,-6.29258 -2.29297,-7.89258 -1.49333,-1.63556 -4.08934,-2.45508 -7.78711,-2.45508 z m 77.599611,0 c 2.56,0 4.67655,0.5349 6.34766,1.60156 1.70666,1.03111 2.98651,2.43512 3.83984,4.21289 0.85333,1.74223 1.2793,3.69831 1.2793,5.86719 0,0.56889 -0.0172,1.06552 -0.0527,1.49219 -0.0355,0.39111 -0.1062,0.83621 -0.21289,1.33398 h -14.82812 c 0.28444,2.59555 1.05048,4.47901 2.29492,5.65235 1.28,1.17331 2.7012,1.76171 4.26562,1.76171 1.35111,0 2.5068,-0.23116 3.4668,-0.69335 0.99555,-0.49778 1.86662,-1.10335 2.61328,-1.81446 l 2.08008,2.02735 c -1.13777,2.16886 -2.70225,3.75053 -4.69336,4.74609 -1.95555,0.99555 -4.24779,1.49414 -6.87891,1.49414 -2.66663,0 -5.05065,-0.55208 -7.14843,-1.6543 -2.062221,-1.10222 -3.697371,-2.68387 -4.906251,-4.74609 -1.20889,-2.09777 -1.8125,-4.60398 -1.8125,-7.51953 0,-2.31111 0.40879,-4.32068 1.22656,-6.02735 0.81778,-1.70663 1.91998,-3.12979 3.30664,-4.26757 1.38667,-1.17334 2.933971,-2.04442 4.640631,-2.61328 1.70664,-0.5689 3.42965,-0.85352 5.17187,-0.85352 z m -0.63867,2.88086 c -0.81777,0 -1.51119,0.60361 -2.08008,1.8125 -0.56889,1.20888 -0.88983,3.46678 -0.96094,6.77344 h 2.50782 c 1.27997,0 2.13192,-0.24832 2.55859,-0.7461 0.46222,-0.53333 0.69336,-1.47506 0.69336,-2.82617 0,-1.84888 -0.28463,-3.14786 -0.85352,-3.89453 -0.53333,-0.74667 -1.15412,-1.11914 -1.86523,-1.11914 z m -76.693361,10.40039 v 8.74609 c -0.64,0.42667 -1.12141,0.7113 -1.44141,0.85352 -0.28444,0.10667 -0.54996,0.16016 -0.79882,0.16016 -0.78222,0 -1.44128,-0.32094 -1.97461,-0.96094 -0.53334,-0.64 -0.79883,-1.61609 -0.79883,-2.93164 0,-1.45778 0.39161,-2.61347 1.17383,-3.4668 0.78219,-0.85333 1.54632,-1.45889 2.29296,-1.81445 0.49778,-0.24889 1.01355,-0.44372 1.54688,-0.58594 z m -34.77344,28.67383 c -4.30219,0 -7.68145,0.92455 -10.13476,2.77344 -2.41777,1.848857 -3.625,4.408597 -3.625,7.679677 0,3.02222 0.87106,5.45775 2.61328,7.30664 1.74222,1.84889 4.26562,3.55666 7.57226,5.1211 l 2.34766,1.11914 c 1.35111,0.64 2.31002,1.31623 2.87891,2.02734 0.60444,0.71111 0.90625,1.70633 0.90625,2.98633 0,1.20888 -0.38966,2.27673 -1.17188,3.20117 -0.78223,0.88889 -2.01054,1.33203 -3.68164,1.33203 -1.77778,0 -3.46641,-0.26549 -5.06641,-0.79883 l -1.0664,-6.7207 h -5.65235 l -0.32031,8.10742 c 1.67111,0.99556 3.59088,1.70615 5.75977,2.13282 2.20441,0.42666 4.30185,0.64062 6.29297,0.64062 3.27108,0 5.97409,-0.48141 8.10742,-1.44141 2.13333,-0.95997 3.71499,-2.25704 4.74609,-3.89257 1.06667,-1.67111 1.59961,-3.55652 1.59961,-5.6543 0,-1.84889 -0.33812,-3.43056 -1.01367,-4.74609 -0.64,-1.35112 -1.66958,-2.56029 -3.0918,-3.62696 -1.38666,-1.10222 -3.20143,-2.18529 -5.4414,-3.25195 l -2.66602,-1.28125 c -1.42222,-0.71111 -2.50724,-1.43888 -3.25391,-2.18555 -0.74666,-0.74666 -1.11914,-1.77819 -1.11914,-3.09375 0,-1.24444 0.46228,-2.27597 1.38672,-3.09375 0.96,-0.85333 2.09853,-1.27929 3.41406,-1.27929 1.13778,0 2.24,0.212 3.30664,0.63867 l 0.95899,6.34765 h 5.54687 l 0.48047,-7.679677 c -1.35111,-0.85334 -2.96907,-1.51239 -4.85351,-1.97461 -1.88445,-0.46222 -3.80422,-0.69336 -5.75977,-0.69336 z m 29.86524,9.013667 c -2.84444,0 -5.42131,0.55207 -7.73243,1.6543 -2.31108,1.06666 -4.14302,2.64832 -5.49414,4.74609 -1.35108,2.06222 -2.02539,4.56842 -2.02539,7.51953 0,3.09332 0.63993,5.65302 1.91993,7.67969 1.31553,2.02666 3.02136,3.55678 5.11914,4.58789 2.09775,0.99556 4.35568,1.49219 6.77343,1.49219 2.52445,0 4.76515,-0.49663 6.72071,-1.49219 1.95553,-0.99555 3.50089,-2.57916 4.63867,-4.74805 l -2.08008,-2.02539 c -0.74667,0.71111 -1.54511,1.31472 -2.39844,1.8125 -0.85333,0.46222 -1.86768,0.69336 -3.04101,0.69336 -2.13333,0 -3.83917,-0.78126 -5.11914,-2.3457 -1.24444,-1.6 -1.86719,-3.87702 -1.86719,-6.82813 0,-2.45331 0.30181,-4.39028 0.90625,-5.8125 0.64,-1.45777 1.40408,-2.4893 2.29297,-3.09375 0.92444,-0.64 1.7955,-0.95898 2.61328,-0.95898 h 0.21484 l 0.10547,2.24023 c 0.10667,2.34667 0.62244,3.9455 1.54688,4.79883 0.92444,0.85333 1.93879,1.28125 3.04101,1.28125 2.02667,0 3.37718,-1.03153 4.05274,-3.09375 -0.0711,-1.45778 -0.55056,-2.79111 -1.43946,-4 -0.85333,-1.24444 -2.02816,-2.23966 -3.52148,-2.98633 -1.49333,-0.74666 -3.23547,-1.12109 -5.22656,-1.12109 z m 23.94726,0 -11.78711,3.67969 v 2.1875 l 2.88086,0.48047 c 0.0355,0.71108 0.0527,1.3319 0.0527,1.86523 0.0355,0.49778 0.0527,1.04986 0.0527,1.6543 0.0355,0.60444 0.0547,1.40484 0.0547,2.40039 v 3.35937 3.83985 c 0,1.42219 -0.0192,2.77273 -0.0547,4.05273 l -2.55859,0.58789 v 2.71875 h 16.95898 v -2.71875 l -4.16016,-0.90625 c -0.0355,-1.24444 -0.0527,-2.56063 -0.0527,-3.94726 v -3.62696 -3.35937 c 0.21333,-1.20889 0.62212,-2.38371 1.22656,-3.52149 0.64,-1.13778 1.27993,-2.06037 1.91993,-2.77148 l 0.26757,0.37305 c 1.35111,1.95553 2.84296,2.93359 4.47852,2.93359 1.06666,0 1.99122,-0.39161 2.77344,-1.17383 0.78222,-0.81778 1.21013,-1.93911 1.28125,-3.36133 -0.17778,-1.63555 -0.72985,-2.8256 -1.6543,-3.57226 -0.88889,-0.78223 -1.99109,-1.17383 -3.30664,-1.17383 -1.28,0 -2.59423,0.55207 -3.94531,1.6543 -1.31556,1.10222 -2.32991,2.80803 -3.04102,5.11914 l -0.42578,-6.18555 z m 55.787111,0 c 2.56,0 4.67462,0.53294 6.3457,1.59961 1.70667,1.03111 2.98652,2.43707 3.83985,4.21484 0.85333,1.74223 1.28125,3.69635 1.28125,5.86524 0,0.56888 -0.0192,1.06747 -0.0547,1.49414 -0.0355,0.39111 -0.1062,0.83621 -0.21289,1.33398 h -14.82617 c 0.28444,2.59555 1.04852,4.47901 2.29297,5.65235 1.28,1.17331 2.70314,1.75976 4.26758,1.75976 1.35109,0 2.50679,-0.23114 3.46679,-0.69336 0.99555,-0.49778 1.86662,-1.10139 2.61328,-1.8125 l 2.08008,2.02539 c -1.13778,2.16889 -2.70225,3.7525 -4.69336,4.74805 -1.95555,0.99556 -4.24975,1.49219 -6.88086,1.49219 -2.66664,0 -5.048711,-0.55012 -7.146481,-1.65235 -2.06222,-1.10222 -3.69736,-2.68387 -4.90625,-4.74609 -1.20889,-2.09777 -1.81445,-4.60595 -1.81446,-7.52148 1e-5,-2.31112 0.40879,-4.31873 1.22657,-6.0254 0.81777,-1.70664 1.91997,-3.1298 3.30664,-4.26757 1.38666,-1.17334 2.93396,-2.0444 4.64062,-2.61329 1.706671,-0.56887 3.431611,-0.85351 5.173831,-0.85351 z m 25.013669,0 0.95899,0.58789 0.26758,3.67969 c 1.45775,-1.70667 2.79111,-2.84518 4,-3.41407 1.24442,-0.56887 2.61215,-0.85351 4.10546,-0.85351 2.31111,0 4.23284,0.76408 5.76172,2.29297 1.52889,1.49332 2.29297,3.69772 2.29297,6.61328 v 6.7207 3.89258 c 0,1.45778 0.0172,2.82742 0.0527,4.10742 l 2.24023,0.48047 v 2.71875 h -14.7734 v -2.71875 l 2.29297,-0.5332 c 0.0355,-1.28 0.0527,-2.64967 0.0527,-4.10742 v -3.83985 -6.02734 c 0,-1.42222 -0.19483,-2.41744 -0.58594,-2.98633 -0.35555,-0.60444 -0.95917,-0.90625 -1.8125,-0.90625 -0.99555,0 -2.15125,0.46228 -3.4668,1.38672 v 8.5332 3.89258 c 0,1.45778 0.0172,2.8446 0.0527,4.16016 l 2.02734,0.42773 v 2.71875 h -14.720699 v -2.71875 l 2.453119,-0.58789 c 0.0355,-1.28 0.0527,-2.63054 0.0527,-4.05273 v -3.83985 -3.30664 c 0,-0.99556 -0.0172,-1.79595 -0.0527,-2.40039 0,-0.60444 -0.0172,-1.1737 -0.0527,-1.70703 0,-0.53333 -0.0172,-1.15415 -0.0527,-1.86523 l -2.880859,-0.48047 v -2.1875 z m -53.70703,2.88086 c -0.81777,0 -1.51118,0.60361 -2.08008,1.8125 -0.56888,1.20889 -0.88983,3.46678 -0.96093,6.77344 h 2.50781 c 1.28,0 2.13388,-0.24832 2.56055,-0.7461 0.46222,-0.53333 0.6914,-1.47506 0.6914,-2.82617 0,-1.84888 -0.28267,-3.14786 -0.85156,-3.89453 -0.53333,-0.74667 -1.15608,-1.11914 -1.86719,-1.11914 z m 28.052741,0 c -0.81778,0 -1.51119,0.60361 -2.08008,1.8125 -0.56889,1.20889 -0.88787,3.46678 -0.95899,6.77344 h 2.50586 c 1.28,0 2.13388,-0.24832 2.56055,-0.7461 0.46222,-0.53333 0.69336,-1.47506 0.69336,-2.82617 0,-1.84888 -0.28463,-3.14786 -0.85352,-3.89453 -0.53333,-0.74667 -1.15607,-1.11914 -1.86718,-1.11914 z" />
  </g>
</svg>
