<?xml version="1.0" encoding="UTF-8" standalone="no"?>
<svg
   id="visual"
   viewBox="0 0 900 126"
   width="900"
   height="126"
   version="1.1"
   xmlns="http://www.w3.org/2000/svg"
   xmlns:svg="http://www.w3.org/2000/svg">
  <defs
     id="defs1" />
  <path
     d="m 0,23 30,6.2 c 30,6.1 90,18.5 150,25.6 60,7.2 120,9.2 180,2.5 60,-6.6 120,-22 180,-21.5 60,0.5 120,16.9 180,13.5 C 780,46 840,23 870,11.5 L 900,0 v 126 h -30 c -30,0 -90,0 -150,0 -60,0 -120,0 -180,0 -60,0 -120,0 -180,0 -60,0 -120,0 -180,0 -60,0 -120,0 -150,0 H 0 Z"
     fill="#6622cc"
     stroke-linecap="round"
     stroke-linejoin="miter"
     id="path1" />
</svg>
