<?xml version="1.0" encoding="UTF-8" standalone="no"?>
<svg
   xmlns:dc="http://purl.org/dc/elements/1.1/"
   xmlns:cc="http://creativecommons.org/ns#"
   xmlns:rdf="http://www.w3.org/1999/02/22-rdf-syntax-ns#"
   xmlns:svg="http://www.w3.org/2000/svg"
   xmlns="http://www.w3.org/2000/svg"
   width="688.98822"
   height="708.11133"
   viewBox="0 0 182.29479 187.35446"
   version="1.1"
   id="svg8">
  <defs
     id="defs2">
    <marker
       style="overflow:visible"
       id="Arrow1Lstart"
       refX="0"
       refY="0"
       orient="auto">
      <path
         transform="matrix(0.8,0,0,0.8,10,0)"
         style="fill:#ffffff;fill-opacity:1;fill-rule:evenodd;stroke:#ffffff;stroke-width:1pt;stroke-opacity:1"
         d="M 0,0 5,-5 -12.5,0 5,5 Z"
         id="path860" />
    </marker>
  </defs>
  <metadata
     id="metadata5">
    <rdf:RDF>
      <cc:Work
         rdf:about="">
        <dc:format>image/svg+xml</dc:format>
        <dc:type
           rdf:resource="http://purl.org/dc/dcmitype/StillImage" />
        <dc:title></dc:title>
      </cc:Work>
    </rdf:RDF>
  </metadata>
  <path
     style="font-style:normal;font-variant:normal;font-weight:bold;font-stretch:normal;font-size:57.6425px;line-height:1.25;font-family:Quicksand;-inkscape-font-specification:'Quicksand, Bold';font-variant-ligatures:normal;font-variant-caps:normal;font-variant-numeric:normal;font-variant-east-asian:normal;letter-spacing:-0.687917px;fill:#ffffff;fill-opacity:1;stroke:none;stroke-width:5.19188"
     d="m 14.916219,4.3383505e-5 a 3.886774,3.886774 0 0 0 -0.08,0.0019999965 3.886774,3.886774 0 0 0 -3.71624,3.20790002 L 0.0589794,65.781643 a 3.886774,3.886774 0 0 0 5.15726,4.32687 l 18.5342596,-6.73419 35.77286,93.485147 8.3409,22.45905 c 0.96916,2.769 2.70046,4.91514 5.19262,6.43814 2.63048,1.38448 5.26164,1.8694 7.89212,1.45408 4.70741,-0.27692 8.23633,-2.90808 10.58999,-7.89222 l 16.730241,-51.08437 17.74486,51.08619 c 2.35366,4.98424 5.88458,7.61348 10.59192,7.8904 2.76898,0.41532 5.39822,-0.0696 7.8903,-1.45408 2.49208,-1.523 4.22346,-3.66734 5.19262,-6.43632 l 31.7736,-85.563207 c 0.27702,-0.69224 0.4854,-1.38364 0.62372,-2.07588 0.1384,-0.83066 0.20855,-1.73234 0.20855,-2.7015 0,-3.73816 -1.17819,-6.78406 -3.53185,-9.13772 -2.35366,-2.49208 -5.12122,-3.73664 -8.30554,-3.73664 -6.36874,0 -10.38448,2.62924 -12.0459,7.8903 l -22.25792,59.715657 -15.95392,-43.30942 c -0.96916,-2.492077 -2.2856,-4.359777 -3.947,-5.605857 -1.523,-1.38448 -3.80746,-2.07778 -6.85328,-2.07778 -5.39966,0 -9.20702,2.56098 -11.422281,7.683637 l -15.43991,41.90938 -33.69506,-88.054307 16.0804,-5.84236 a 3.886774,3.886774 0 0 0 1.17488,-6.62802 L 17.453919,0.91060338 A 3.886774,3.886774 0 0 0 14.916279,1.8338351e-4 Z"
     id="path845" />
</svg>
