<?xml version="1.0" encoding="UTF-8" standalone="no"?>
<svg
   xmlns:dc="http://purl.org/dc/elements/1.1/"
   xmlns:cc="http://creativecommons.org/ns#"
   xmlns:rdf="http://www.w3.org/1999/02/22-rdf-syntax-ns#"
   xmlns:svg="http://www.w3.org/2000/svg"
   xmlns="http://www.w3.org/2000/svg"
   width="2048"
   height="715.42035"
   viewBox="0 0 541.86665 189.28831"
   version="1.1"
   id="svg8">
  <defs
     id="defs2">
    <marker
       style="overflow:visible"
       id="Arrow1Lstart"
       refX="0"
       refY="0"
       orient="auto">
      <path
         transform="matrix(0.8,0,0,0.8,10,0)"
         style="fill:#ffffff;fill-opacity:1;fill-rule:evenodd;stroke:#ffffff;stroke-width:1pt;stroke-opacity:1"
         d="M 0,0 5,-5 -12.5,0 5,5 Z"
         id="path860" />
    </marker>
  </defs>
  <metadata
     id="metadata5">
    <rdf:RDF>
      <cc:Work
         rdf:about="">
        <dc:format>image/svg+xml</dc:format>
        <dc:type
           rdf:resource="http://purl.org/dc/dcmitype/StillImage" />
        <dc:title></dc:title>
      </cc:Work>
    </rdf:RDF>
  </metadata>
  <g
     id="layer1"
     transform="translate(-235.04818,-261.75155)">
    <path
       id="path845"
       style="font-style:normal;font-variant:normal;font-weight:bold;font-stretch:normal;font-size:57.6425px;line-height:1.25;font-family:Quicksand;-inkscape-font-specification:'Quicksand, Bold';font-variant-ligatures:normal;font-variant-caps:normal;font-variant-numeric:normal;font-variant-east-asian:normal;letter-spacing:-0.687917px;fill:#ffffff;fill-opacity:1;stroke:none;stroke-width:5.19188"
       d="m 609.53626,261.75159 a 3.886774,3.886774 0 0 0 -0.08,0.002 3.886774,3.886774 0 0 0 -3.71624,3.2079 l -11.061,62.5717 a 3.886774,3.886774 0 0 0 5.15726,4.32687 l 18.53426,-6.73419 35.77286,93.48515 8.3409,22.45905 c 0.96916,2.769 2.70046,4.91514 5.19262,6.43814 2.63048,1.38448 5.26164,1.8694 7.89212,1.45408 4.70741,-0.27692 8.23633,-2.90808 10.58999,-7.89222 l 16.73024,-51.08437 17.74486,51.08619 c 2.35366,4.98424 5.88458,7.61348 10.59192,7.8904 2.76898,0.41532 5.39822,-0.0696 7.8903,-1.45408 2.49208,-1.523 4.22346,-3.66734 5.19262,-6.43632 l 31.7736,-85.56321 c 0.27702,-0.69224 0.4854,-1.38364 0.62372,-2.07588 0.1384,-0.83066 0.20855,-1.73234 0.20855,-2.7015 0,-3.73816 -1.17819,-6.78406 -3.53185,-9.13772 -2.35366,-2.49208 -5.12122,-3.73664 -8.30554,-3.73664 -6.36874,0 -10.38448,2.62924 -12.0459,7.8903 l -22.25792,59.71566 -15.95392,-43.30942 c -0.96916,-2.49208 -2.2856,-4.35978 -3.947,-5.60586 -1.523,-1.38448 -3.80746,-2.07778 -6.85328,-2.07778 -5.39966,0 -9.20702,2.56098 -11.42228,7.68364 l -15.43991,41.90938 -33.69506,-88.05431 16.0804,-5.84236 a 3.886774,3.886774 0 0 0 1.17488,-6.62802 l -48.6435,-40.87602 a 3.886774,3.886774 0 0 0 -2.53764,-0.91042 z m -326.3063,74.02743 c -7.61478,0 -14.32988,1.1763 -20.14478,3.52996 -5.67646,2.21524 -10.59202,5.05468 -14.74554,8.51592 -4.01506,3.46124 -7.47586,6.99206 -10.3833,10.5918 -1.1076,1.3845 -1.8691,2.83744 -2.28444,4.36034 -0.41536,1.3845 -0.62372,2.76918 -0.62372,4.15378 0,3.0459 1.10814,5.46858 3.32334,7.2685 2.2152,1.79982 4.63794,2.6996 7.2685,2.6996 3.5997,0 6.71572,-1.45294 9.34628,-4.36034 2.2152,-2.63058 4.49968,-4.9851 6.85332,-7.06184 2.35368,-2.07674 5.19124,-3.73806 8.51406,-4.98406 3.32282,-1.24608 7.40682,-1.8693 12.25256,-1.8693 2.90747,0 6.09169,0.41484 9.55293,1.2456 3.46126,0.69224 6.43898,2.28532 8.9311,4.77738 2.4921,2.35366 3.73666,6.16102 3.73666,11.42218 v 5.19262 H 280.3218 c -16.06024,0 -27.55072,3.25238 -34.47326,9.75954 -6.78406,6.50724 -10.17664,15.16014 -10.17664,25.95928 0,7.89164 2.0079,14.40021 6.02294,19.52285 4.01506,4.98424 8.99882,8.65158 14.9522,11.00524 6.09182,2.35366 12.25192,3.53178 18.48218,3.53178 7.06098,0 13.43129,-1.24638 19.10775,-3.73846 5.81492,-2.63056 10.79868,-5.74654 14.95218,-9.34628 2.98784,-2.5895 5.3916,-4.99636 7.23314,-7.22762 4.1133,5.19778 9.17618,9.54848 15.19608,13.04384 8.72238,4.84584 18.96642,7.26852 30.73474,7.26852 6.92256,0 13.63762,-1.10806 20.14476,-3.32332 6.50713,-2.35366 11.56105,-5.05296 15.16071,-8.09886 3.87666,-3.04592 5.81442,-6.43852 5.81442,-10.17668 0,-2.76898 -1.038,-5.19165 -3.11474,-7.26849 -1.93832,-2.07674 -4.43116,-3.11474 -7.47706,-3.11474 -2.21516,0 -4.56788,0.62314 -7.05994,1.86922 -1.523,0.83066 -3.25429,1.86876 -5.19261,3.11484 -1.79982,1.10758 -4.2226,2.0756 -7.2685,2.90625 -3.04592,0.83074 -7.1299,1.24742 -12.25256,1.24742 -5.53808,0 -10.79838,-1.31644 -15.78262,-3.94701 -4.84572,-2.769 -8.8615,-6.71476 -12.04586,-11.83742 -1.7822,-3.07832 -3.02704,-6.5466 -3.76644,-10.38332 h 68.56115 c 3.32282,0 6.2304,-1.038 8.72258,-3.11484 2.49198,-2.07664 3.8066,-4.77604 3.9451,-8.09878 0,-7.4764 -1.45284,-14.53806 -4.36034,-21.1837 -2.76898,-6.64566 -6.57644,-12.46094 -11.42218,-17.44518 -4.84574,-5.12266 -10.45272,-9.13658 -16.82145,-12.04408 -6.23022,-2.9074 -12.87712,-4.36214 -19.9381,-4.36214 -9.13772,0 -17.79064,2.3545 -25.95922,7.06184 -3.48384,2.04222 -6.69268,4.47606 -9.62926,7.30014 -2.47252,-3.05038 -5.4878,-5.55942 -9.06144,-7.50872 -4.4304,-2.49208 -9.3441,-4.22154 -14.74366,-5.19072 -5.26114,-1.10756 -10.45326,-1.66254 -15.57589,-1.66254 z m 203.53485,0 c -3.46124,0 -6.92209,0.41484 -10.38333,1.2455 -3.46124,0.83076 -6.71552,2.14718 -9.76144,3.94702 -3.0459,1.6614 -5.81528,3.80764 -8.30744,6.43812 -1.6618,1.7596 -3.11264,3.73016 -4.36034,5.90384 v -2.789 c 0,-3.59966 -1.1763,-6.5774 -3.52996,-8.93106 -2.35366,-2.49208 -5.33142,-3.73664 -8.93106,-3.73664 -3.59976,0 -6.5756,1.24456 -8.92926,3.73664 -2.35366,2.35366 -3.53188,5.3314 -3.53188,8.93106 v 85.76985 c 0,3.59976 1.17822,6.64566 3.53188,9.13774 2.35366,2.35366 5.3295,3.53006 8.92926,3.53006 3.59964,0 6.5774,-1.1764 8.93106,-3.53006 2.35366,-2.49208 3.52996,-5.53798 3.52996,-9.13774 v -49.21877 c 0,-4.98424 0.62324,-9.2766 1.86932,-12.87626 1.3845,-3.73816 3.11388,-6.85232 5.1907,-9.34448 2.21516,-2.49208 4.56968,-4.29352 7.06184,-5.4011 2.63058,-1.24598 5.19158,-1.86922 7.68366,-1.86922 2.76898,0 5.19176,0.48492 7.26849,1.45408 2.21524,0.96918 4.63792,1.45408 7.2685,1.45408 2.769,0 5.33008,-0.96992 7.68374,-2.90816 2.35366,-2.07674 3.53178,-5.39928 3.53178,-9.9682 0,-3.18432 -1.45476,-5.95368 -4.36216,-8.30734 -2.76898,-2.35366 -6.22984,-3.52996 -10.38332,-3.52996 z m 75.60616,0 c -10.52222,0 -20.07488,2.49282 -28.65878,7.47696 -8.44548,4.84584 -15.22878,11.62914 -20.35142,20.35144 -4.98424,8.58398 -7.47708,18.55332 -7.47708,29.9063 0,11.35288 2.49284,21.39046 7.47708,30.11286 5.12264,8.58397 11.90594,15.29903 20.35142,20.14475 8.5839,4.84584 18.13656,7.26852 28.65878,7.26852 10.52232,0 20.00673,-2.42268 28.45221,-7.26852 8.58388,-4.84572 15.36718,-11.56078 20.35142,-20.14475 5.12266,-8.7224 7.68556,-18.75998 7.68556,-30.11286 0,-11.35298 -2.5629,-21.32232 -7.68556,-29.9063 -4.98424,-8.7223 -11.76754,-15.5056 -20.35142,-20.35144 -8.44548,-4.98414 -17.92989,-7.47696 -28.45221,-7.47696 z m -204.17154,22.84436 c 4.29198,0 8.30772,0.96982 12.04588,2.90816 3.87666,1.79992 7.0609,4.29084 9.55296,7.47516 2.63058,3.18432 4.08533,6.7853 4.36225,10.80038 v 1.45408 h -54.41513 c 0.33652,-1.71604 0.7473,-3.3172 1.24928,-4.77748 1.52294,-4.4304 3.59904,-7.96122 6.2296,-10.5918 2.63058,-2.63058 5.74656,-4.49828 9.34632,-5.60586 3.59974,-1.10766 7.47536,-1.66264 11.62884,-1.66264 z m 204.17154,0 c 5.815,0 11.0772,1.45474 15.78444,4.36224 4.84581,2.9074 8.65317,6.9914 11.42225,12.25256 2.9074,5.12264 4.36034,11.21456 4.36034,18.27554 0,6.92248 -1.45294,13.01438 -4.36034,18.27554 -2.76908,5.12266 -6.57644,9.13658 -11.42225,12.04398 -4.70724,2.90749 -9.96944,4.36225 -15.78444,4.36225 -5.8149,0 -11.14526,-1.45476 -15.991,-4.36225 -4.70732,-2.9074 -8.51476,-6.92132 -11.42226,-12.04398 -2.769,-5.26116 -4.15178,-11.35306 -4.15178,-18.27554 0,-7.06098 1.38278,-13.1529 4.15178,-18.27554 2.9075,-5.26116 6.71494,-9.34516 11.42226,-12.25256 4.84574,-2.9075 10.1761,-4.36224 15.991,-4.36224 z M 277.8307,402.02774 h 27.35371 c 0.348,3.42186 0.94896,6.71942 1.81526,9.88992 -1.24862,2.20544 -3.0617,4.5796 -5.4942,7.1401 -2.4921,2.63048 -5.81646,4.91494 -9.97,6.85328 -4.1535,1.79981 -9.34373,2.69959 -15.57401,2.69959 -2.4921,0 -4.91486,-0.41486 -7.26852,-1.24552 -2.35368,-0.83076 -4.29336,-2.14717 -5.8163,-3.94701 -1.52294,-1.79982 -2.28442,-4.08436 -2.28442,-6.85336 0,-2.21516 0.41672,-4.42954 1.2474,-6.6448 0.83072,-2.21514 2.4219,-4.08476 4.77554,-5.60776 2.49212,-1.5229 6.23134,-2.28444 11.21554,-2.28444 z" />
  </g>
</svg>
