<?xml version="1.0" encoding="UTF-8" standalone="no"?>
<svg viewBox="0 0 24 24" version="1.1" id="svg4" xml:space="preserve" xmlns="http://www.w3.org/2000/svg" xmlns:svg="http://www.w3.org/2000/svg"><defs id="defs8" /><path id="path2" d="M 12 2 A 10 10 0 0 0 2 12 A 10 10 0 0 0 12 22 A 10 10 0 0 0 22 12 A 10 10 0 0 0 12 2 z M 12 5.8027344 L 12.667969 6.9472656 L 11.144531 7.2695312 L 12 5.8027344 z M 5.0292969 6.578125 L 8.7167969 9.9316406 L 8.7167969 10.537109 L 9.796875 10.433594 L 9.796875 13.443359 L 9.796875 14.263672 C 9.796875 14.281157 9.7969161 14.298914 9.796875 14.316406 L 8.3144531 14.697266 L 8.3144531 15.097656 L 6.578125 15.097656 L 5.0292969 6.578125 z M 18.970703 6.578125 L 17.421875 15.097656 L 15.685547 15.097656 L 15.685547 14.71875 L 14.308594 14.324219 C 14.308538 14.304421 14.306641 14.28341 14.306641 14.263672 L 14.306641 13.443359 L 14.306641 9.8691406 L 14.306641 9.8398438 L 14.308594 9.7617188 L 14.710938 10.451172 L 18.970703 6.578125 z M 6.578125 16.648438 L 8.3144531 16.648438 L 8.3144531 17.136719 L 15.685547 17.136719 L 15.685547 16.648438 L 17.421875 16.648438 L 17.421875 17.421875 C 17.421875 17.886641 17.113202 18.197266 16.648438 18.197266 L 7.3515625 18.197266 C 6.8867973 18.197266 6.578125 17.886641 6.578125 17.421875 L 6.578125 16.648438 z " /><path d="m 9.7171133,8.5919306 3.4601017,-0.7284424 0.18211,0.130079 -0.05203,1.8471218 v 3.603188 q 0,0.403245 0,0.819498 0,0.403245 0.01301,0.819498 l 1.365829,0.390237 v 0.663403 H 9.3138684 V 15.47311 l 1.4698926,-0.377229 q 0.01301,-0.416253 0.01301,-0.832506 0,-0.416253 0,-0.819498 V 9.3333809 L 9.7171133,9.4374441 Z" style="font-weight:900;font-size:13.0079px;line-height:0;font-family:'Source Serif Pro';-inkscape-font-specification:'Source Serif Pro Heavy';text-align:center;text-anchor:middle;fill:#c7a170;stroke-width:0.999999" id="path1420" /></svg>
