<?xml version="1.0" encoding="UTF-8" standalone="no"?>
<svg viewBox="0 0 24 24" version="1.1" id="svg1075" xmlns="http://www.w3.org/2000/svg" xmlns:svg="http://www.w3.org/2000/svg"> <defs id="defs1079" /> <path id="path1073" d="M 12 2 C 11.79 2 11.589687 2.0596876 11.429688 2.1796875 L 3.5292969 6.6191406 C 3.2092972 6.7891405 3 7.1200004 3 7.5 L 3 16.5 C 3 16.88 3.2092972 17.21086 3.5292969 17.380859 L 11.429688 21.820312 C 11.589687 21.940312 11.79 22 12 22 C 12.21 22 12.410313 21.940312 12.570312 21.820312 L 20.470703 17.380859 C 20.790703 17.21086 21 16.88 21 16.5 L 21 7.5 C 21 7.1200004 20.790703 6.7891405 20.470703 6.6191406 L 12.570312 2.1796875 C 12.410313 2.0596876 12.21 2 12 2 z " /> <text xml:space="preserve" style="font-size:13.0079px;line-height:0;font-family:'Source Sans Pro';-inkscape-font-specification:'Source Sans Pro, Normal';letter-spacing:-0.8px;stroke-width:0.999999" x="65.241249" y="16.136513" id="text353"><tspan id="tspan351" x="12.0065" y="16.136513" style="font-style:normal;font-variant:normal;font-weight:900;font-stretch:normal;font-family:'Source Serif Pro';-inkscape-font-specification:'Source Serif Pro Heavy';text-align:center;text-anchor:middle;fill:#c7a170;fill-opacity:1;stroke-width:0.999999">1</tspan></text> </svg>
