<?xml version="1.0" encoding="UTF-8" standalone="no"?>
<svg viewBox="0 0 24 24" version="1.1" id="svg4" xml:space="preserve" xmlns="http://www.w3.org/2000/svg" xmlns:svg="http://www.w3.org/2000/svg"><defs id="defs8" /><path id="path2" d="M 12 2 A 10 10 0 0 0 2 12 A 10 10 0 0 0 12 22 A 10 10 0 0 0 22 12 A 10 10 0 0 0 12 2 z M 12 5.8027344 L 17.607422 8.7539062 L 17.607422 9.9335938 L 15.949219 9.9335938 C 15.924712 9.4090809 15.784252 8.9145136 15.517578 8.4589844 C 15.209418 7.9173521 14.744261 7.5289875 14.183594 7.2578125 C 13.59661 6.9612076 12.89564 6.8378906 12.142578 6.8378906 C 11.46096 6.8378906 10.81333 6.9395575 10.201172 7.1582031 C 9.5819322 7.3833809 9.0526913 7.7228752 8.6289062 8.2089844 C 8.1965114 8.7068936 7.9911748 9.2905696 7.9628906 9.9335938 L 6.3925781 9.9335938 L 6.3925781 8.7539062 L 12 5.8027344 z M 14.183594 7.2578125 C 14.187494 7.2597725 14.193396 7.257791 14.197266 7.2597656 L 14.173828 7.2480469 C 14.178128 7.2501169 14.179294 7.2557225 14.183594 7.2578125 z M 15.517578 8.4589844 C 15.519278 8.4619144 15.523791 8.4619038 15.525391 8.4648438 L 15.515625 8.4492188 C 15.517325 8.4521586 15.515806 8.4560344 15.517578 8.4589844 z M 7.5742188 11.115234 L 8.4960938 11.115234 C 8.5890894 11.201569 8.6911003 11.280338 8.8007812 11.349609 C 8.9766939 11.460713 9.1559263 11.538882 9.34375 11.589844 L 9.34375 13.154297 C 9.2762722 13.220089 9.2132465 13.283042 9.1445312 13.349609 C 8.8624329 13.614339 8.5811382 13.887611 8.3007812 14.167969 L 8.0078125 14.460938 L 8.0078125 15.246094 L 7.5742188 15.246094 L 7.5742188 11.115234 z M 11.144531 11.115234 L 11.154297 11.115234 C 11.141043 11.13824 11.127879 11.160772 11.115234 11.183594 L 11.115234 11.144531 C 11.124959 11.134685 11.134594 11.124902 11.144531 11.115234 z M 15.792969 11.115234 L 16.425781 11.115234 L 16.425781 15.246094 L 16.042969 15.246094 L 16.042969 13.341797 L 14.65625 13.341797 L 14.65625 12.800781 C 14.727136 12.746198 14.792322 12.692549 14.84375 12.638672 C 15.286571 12.175094 15.61279 11.669377 15.792969 11.115234 z M 6.3925781 16.425781 L 8.0078125 16.425781 L 8.0078125 17.162109 L 16.042969 17.162109 L 16.042969 16.425781 L 17.607422 16.425781 L 17.607422 18.197266 L 6.3925781 18.197266 L 6.3925781 16.425781 z " /><path d="m 9.0081827,16.162529 v -1.287782 q 0.4162528,-0.416253 0.8325056,-0.80649 0.4162527,-0.403245 0.8064897,-0.793482 0.598364,-0.611371 1.001608,-1.092663 0.416253,-0.494301 0.62438,-0.988601 0.208126,-0.507308 0.208126,-1.118679 0,-0.7414506 -0.325197,-1.1316876 -0.325198,-0.4032449 -0.897546,-0.4032449 -0.05203,0 -0.104063,0 -0.03902,0 -0.104063,0 l -0.117071,0.9365688 q -0.06504,0.4943002 -0.234142,0.7544577 -0.169103,0.247151 -0.390237,0.338206 -0.221135,0.09106 -0.429261,0.09106 -0.2991817,0 -0.5463318,-0.156095 -0.2471501,-0.156094 -0.3772291,-0.416252 0,-0.7284428 0.4292607,-1.222743 0.4422686,-0.5073082 1.1577032,-0.7674662 0.728442,-0.260158 1.599972,-0.260158 0.9886,0 1.599971,0.3121896 0.62438,0.2991818 0.910553,0.8064899 0.299182,0.5073081 0.299182,1.1446947 0,0.975593 -0.832506,1.847122 -0.819497,0.858522 -2.484508,1.821106 -0.247151,0.143087 -0.494301,0.286174 -0.24715,0.143087 -0.481292,0.286174 h 4.383662 v 1.821106 z" style="font-weight:900;font-size:13.0079px;line-height:0;font-family:'Source Serif Pro';-inkscape-font-specification:'Source Serif Pro Heavy';text-align:center;text-anchor:middle;fill:#c7a170;stroke-width:0.999999" id="path1620" /></svg>
