<?xml version="1.0" standalone="no"?>
<!DOCTYPE svg PUBLIC "-//W3C//DTD SVG 20010904//EN"
 "http://www.w3.org/TR/2001/REC-SVG-20010904/DTD/svg10.dtd">
<svg version="1.0" xmlns="http://www.w3.org/2000/svg"
 width="708.000000pt" height="708.000000pt" viewBox="0 0 708.000000 708.000000"
 preserveAspectRatio="xMidYMid meet">
<metadata>
Created by potrace 1.14, written by Peter Selinger 2001-2017
</metadata>
<g transform="translate(0.000000,708.000000) scale(0.100000,-0.100000)"
fill="#000000" stroke="none">
<path d="M577 7046 c-44 -38 -51 -56 -77 -199 -11 -61 -22 -125 -25 -142 -3
-16 -10 -57 -16 -90 -6 -33 -12 -71 -15 -85 -2 -14 -7 -40 -10 -59 -3 -18 -8
-43 -10 -55 -2 -11 -7 -37 -10 -56 -2 -19 -7 -46 -10 -60 -2 -14 -7 -38 -9
-55 -3 -16 -8 -41 -10 -55 -13 -62 -15 -77 -20 -105 -2 -16 -6 -39 -8 -50 -3
-11 -8 -40 -12 -65 -4 -25 -9 -52 -10 -61 -2 -9 -6 -32 -9 -50 -10 -56 -16
-92 -26 -144 -6 -27 -12 -63 -14 -80 -5 -37 -13 -85 -26 -150 -5 -27 -12 -63
-15 -80 -3 -16 -7 -40 -9 -51 -2 -12 -7 -39 -10 -60 -4 -22 -9 -55 -13 -74 -3
-19 -7 -42 -8 -50 -1 -8 -5 -26 -8 -40 -4 -14 -9 -41 -12 -60 -5 -39 -9 -57
-31 -180 -9 -47 -18 -98 -20 -115 -2 -16 -6 -41 -9 -55 -20 -97 -26 -155 -21
-185 9 -45 65 -101 111 -108 48 -8 68 -3 218 53 73 26 215 78 317 114 102 37
193 71 202 76 38 22 47 12 88 -95 4 -11 15 -38 23 -60 30 -74 89 -230 91 -240
2 -5 10 -27 20 -47 9 -21 16 -39 16 -42 0 -3 5 -17 12 -33 6 -15 12 -32 14
-38 2 -8 92 -243 119 -310 4 -11 9 -24 11 -30 4 -14 123 -325 133 -350 5 -11
23 -58 41 -105 18 -47 36 -94 41 -105 4 -11 34 -87 65 -170 30 -82 62 -163 69
-180 7 -16 32 -82 55 -145 22 -63 46 -123 51 -134 6 -10 17 -37 24 -60 7 -22
32 -88 55 -146 23 -58 43 -109 44 -115 2 -5 7 -19 11 -30 4 -11 19 -49 32 -85
13 -36 28 -74 33 -85 8 -18 36 -90 117 -305 14 -36 38 -99 53 -140 16 -41 45
-118 65 -170 19 -52 40 -104 45 -115 18 -41 100 -261 100 -269 0 -4 7 -22 15
-39 8 -18 37 -95 65 -172 28 -77 54 -149 59 -160 5 -11 35 -90 66 -175 102
-284 124 -328 202 -402 32 -31 125 -87 158 -94 6 -2 21 -6 35 -10 43 -11 172
-13 230 -3 125 22 240 106 313 227 30 49 70 155 97 257 2 6 13 37 25 70 13 33
24 65 25 70 2 6 4 15 6 20 18 56 48 151 49 155 0 3 3 10 6 15 5 8 16 44 24 75
0 4 197 603 303 925 9 28 17 53 18 58 1 4 3 9 4 12 1 3 3 8 4 13 1 4 4 12 8
17 3 6 11 30 18 55 6 25 28 92 48 149 26 76 38 99 42 85 20 -56 42 -121 45
-134 2 -8 11 -33 19 -55 22 -59 144 -411 167 -480 11 -33 24 -69 28 -80 5 -11
28 -76 51 -145 23 -69 45 -134 50 -145 7 -17 31 -86 35 -105 1 -3 5 -12 8 -20
4 -8 29 -80 57 -160 27 -80 77 -224 110 -320 34 -96 62 -179 64 -185 16 -74
92 -201 152 -256 20 -19 45 -42 55 -52 11 -9 23 -17 27 -17 5 0 27 -9 51 -21
23 -11 83 -25 131 -31 111 -14 199 -1 286 42 68 33 154 112 176 160 7 16 16
30 20 30 5 0 8 6 8 13 0 6 27 81 60 166 33 85 60 158 60 162 0 3 8 24 17 45 9
22 18 44 19 49 1 6 27 75 57 155 30 80 94 251 141 380 48 129 94 251 102 270
8 20 16 42 18 50 2 8 8 29 15 45 6 17 19 50 28 75 8 25 21 59 28 75 7 17 24
62 38 100 28 79 115 313 157 425 38 102 43 114 45 120 1 3 6 16 12 30 6 14 17
45 26 70 25 72 77 213 86 235 5 11 58 151 117 310 58 160 116 315 127 345 12
30 22 60 23 65 2 6 17 46 35 90 29 72 32 91 32 190 1 61 -2 126 -7 145 -16 71
-65 155 -125 216 -127 128 -259 163 -456 121 -86 -18 -155 -56 -210 -112 -35
-37 -86 -121 -91 -150 -1 -6 -13 -40 -27 -75 -38 -100 -40 -104 -43 -115 -2
-5 -32 -88 -69 -184 -36 -95 -65 -179 -65 -186 0 -7 -3 -15 -8 -17 -4 -1 -20
-41 -36 -88 -15 -47 -34 -98 -42 -115 -15 -34 -128 -338 -151 -405 -8 -25 -21
-58 -28 -75 -7 -16 -25 -64 -39 -105 -30 -81 -53 -143 -67 -175 -5 -11 -21
-54 -35 -95 -15 -41 -31 -86 -37 -100 -6 -14 -11 -27 -12 -30 -4 -18 -29 -87
-34 -95 -3 -5 -6 -14 -7 -20 -1 -5 -23 -64 -48 -130 -26 -66 -56 -147 -68
-180 -11 -33 -24 -64 -28 -68 -4 -5 -18 20 -30 55 -13 35 -28 74 -33 88 -6 14
-11 27 -11 30 -1 3 -6 19 -13 35 -11 29 -147 398 -245 665 -27 74 -58 158 -68
185 -89 238 -113 301 -114 310 -1 6 -4 15 -7 20 -4 6 -12 28 -19 50 -7 22 -18
54 -25 70 -33 79 -55 139 -55 151 0 7 -3 14 -7 16 -5 2 -15 16 -24 32 -25 44
-83 115 -94 116 -6 0 -21 10 -35 23 -56 50 -201 75 -327 55 -117 -18 -238
-100 -297 -200 -21 -36 -85 -180 -88 -198 -1 -7 -3 -14 -48 -135 -23 -60 -42
-114 -44 -120 -3 -13 -44 -125 -55 -150 -9 -20 -55 -146 -57 -155 0 -3 -5 -16
-11 -30 -6 -14 -18 -45 -26 -70 -9 -25 -48 -130 -87 -235 -39 -104 -72 -194
-74 -200 -2 -5 -8 -23 -14 -38 -7 -16 -12 -31 -12 -35 0 -6 -40 -114 -65 -177
-5 -11 -9 -22 -10 -25 -1 -3 -7 -18 -14 -35 -6 -16 -14 -37 -17 -45 -4 -10
-10 -5 -20 19 -8 18 -14 37 -14 41 0 4 -8 25 -17 46 -9 22 -17 41 -18 44 -1 3
-5 12 -8 20 -4 8 -28 74 -55 145 -113 299 -234 614 -253 660 -4 11 -49 128
-99 260 -50 132 -98 254 -105 272 -8 17 -15 35 -15 40 0 4 -11 35 -24 68 -37
91 -88 223 -151 390 -31 83 -60 159 -65 170 -5 11 -26 67 -48 125 -65 171
-202 529 -235 615 -18 44 -32 82 -33 85 -1 7 -14 42 -25 65 -13 29 -51 128
-54 140 -2 11 -12 40 -26 73 -11 28 -12 43 -1 40 7 -2 80 21 97 31 6 3 15 6
20 8 6 1 42 14 80 28 39 15 115 42 170 61 55 20 109 39 120 44 19 8 42 16 57
19 30 7 84 36 103 55 34 34 43 56 41 106 -1 56 -24 94 -84 142 -44 36 -74 60
-132 111 -14 12 -47 40 -75 62 -27 22 -56 47 -65 55 -8 8 -38 33 -65 55 -28
22 -55 45 -61 50 -6 6 -35 30 -65 55 -29 25 -63 55 -76 68 -13 12 -27 22 -31
22 -4 0 -25 17 -47 38 -22 20 -65 57 -95 82 -30 25 -57 47 -60 50 -3 3 -30 25
-60 50 -60 49 -113 95 -142 123 -10 9 -20 17 -23 17 -5 0 -47 34 -74 61 -9 8
-70 60 -136 115 -66 55 -131 109 -144 119 -12 11 -35 31 -51 45 -15 14 -42 36
-60 50 -18 14 -40 32 -49 41 -9 8 -43 37 -76 65 -33 27 -65 54 -71 59 -6 6
-25 21 -43 35 -17 14 -45 36 -61 50 -69 61 -83 67 -141 67 -37 1 -53 -5 -82
-31z"/>
</g>
</svg>
