<?xml version="1.0" standalone="no"?>
<!DOCTYPE svg PUBLIC "-//W3C//DTD SVG 20010904//EN"
 "http://www.w3.org/TR/2001/REC-SVG-20010904/DTD/svg10.dtd">
<svg version="1.0" xmlns="http://www.w3.org/2000/svg"
 width="2048.000000pt" height="2048.000000pt" viewBox="0 0 2048.000000 2048.000000"
 preserveAspectRatio="xMidYMid meet">
<metadata>
Created by potrace 1.14, written by Peter Selinger 2001-2017
</metadata>
<g transform="translate(0.000000,2048.000000) scale(0.100000,-0.100000)"
fill="#000000" stroke="none">
<path d="M1379 15816 c-2 -2 -35 -6 -74 -10 -193 -17 -425 -88 -580 -179 -220
-129 -407 -332 -530 -577 -41 -83 -109 -252 -119 -301 -3 -13 -12 -51 -21 -84
-17 -68 -23 -97 -30 -140 -3 -16 -9 -57 -14 -90 -12 -71 -10 -8386 2 -8425 4
-14 10 -45 13 -70 3 -25 8 -48 10 -51 2 -3 6 -20 9 -38 41 -234 179 -528 337
-718 217 -261 536 -426 910 -470 35 -5 823 -8 1752 -8 l1690 0 1 5565 c0 3061
-1 5573 -4 5583 -3 16 -89 17 -1676 17 -919 0 -1674 -2 -1676 -4z"/>
<path d="M5835 10238 l0 -5583 275 -3 275 -2 0 5585 0 5585 -275 0 -275 0 0
-5582z"/>
<path d="M6938 15803 c-2 -10 -3 -2522 -3 -5583 l1 -5565 274 0 275 0 1 5583
1 5582 -272 0 c-252 0 -273 -1 -277 -17z"/>
<path d="M9140 10235 l0 -5585 275 0 275 0 0 5585 0 5585 -275 0 -275 0 0
-5585z"/>
<path d="M10240 10235 l0 -5585 550 0 550 0 0 28 c0 15 1 2527 1 5582 l0 5555
-550 3 -551 2 0 -5585z"/>
<path d="M12443 10235 l0 -5585 274 0 273 0 1 28 c1 35 1 11113 0 11130 -1 9
-63 12 -274 12 l-274 0 0 -5585z"/>
<path d="M14648 15813 c-2 -5 -4 -2517 -3 -5583 l0 -5575 275 -3 275 -2 0
5582 0 5583 -272 3 c-149 1 -273 -1 -275 -5z"/>
<path d="M15749 15818 c-4 -13 -3 -11152 2 -11159 6 -11 3389 -7 3457 4 344
55 598 174 802 377 241 240 382 535 450 945 18 105 19 284 19 4245 0 2658 -4
4158 -10 4200 -20 130 -24 153 -38 215 -12 51 -58 197 -85 273 -15 40 -85 180
-124 247 -77 134 -248 319 -373 402 -132 90 -326 177 -433 197 -12 2 -39 9
-61 14 -22 6 -62 14 -90 18 -27 3 -59 9 -70 12 -19 6 -3444 16 -3446 10z"/>
</g>
</svg>
