<?xml version="1.0" encoding="UTF-8" standalone="no"?>
<svg
   viewBox="0 0 24 24"
   version="1.1"
   id="svg92"
   xmlns="http://www.w3.org/2000/svg"
   xmlns:svg="http://www.w3.org/2000/svg">
  <defs
     id="defs96" />
  <path
     id="path90"
     d="M 12 2.6132812 C 11.645 2.6132812 11.290078 2.78586 11.080078 3.1308594 L 1.1601562 19.359375 C 0.72015718 20.079373 1.2400799 21 2.0800781 21 L 21.919922 21 C 22.75992 21 23.279842 20.079373 22.839844 19.359375 L 12.919922 3.1308594 C 12.709922 2.78586 12.355 2.6132812 12 2.6132812 z M 11.705078 10.447266 L 12.982422 10.447266 L 12.982422 16.548828 L 14.388672 16.548828 L 14.388672 17.957031 L 9.6113281 17.957031 L 9.6113281 16.548828 L 11.242188 16.548828 L 11.242188 12.208984 L 9.8359375 12.208984 L 9.8359375 11.132812 C 10.245905 11.053973 10.593129 10.959985 10.876953 10.849609 C 11.160777 10.739233 11.437022 10.604945 11.705078 10.447266 z " />
</svg>
