<?xml version="1.0" encoding="UTF-8" standalone="no"?>
<svg
   viewBox="0 0 24 24"
   version="1.1"
   id="svg92"
   xmlns="http://www.w3.org/2000/svg"
   xmlns:svg="http://www.w3.org/2000/svg">
  <defs
     id="defs96" />
  <path
     id="path90"
     d="M 12 2.6132812 C 11.645 2.6132812 11.290078 2.78586 11.080078 3.1308594 L 1.1601562 19.359375 C 0.72015718 20.079373 1.2400799 21 2.0800781 21 L 21.919922 21 C 22.75992 21 23.279842 20.079373 22.839844 19.359375 L 12.919922 3.1308594 C 12.709922 2.78586 12.355 2.6132812 12 2.6132812 z M 11.833984 10.304688 C 12.204532 10.304688 12.540252 10.364162 12.839844 10.482422 C 13.147319 10.592798 13.412061 10.753929 13.632812 10.966797 C 13.853564 11.171781 14.022365 11.421183 14.140625 11.712891 C 14.258885 12.004598 14.318359 12.330696 14.318359 12.693359 C 14.318359 13.008719 14.251215 13.332935 14.117188 13.664062 C 13.98316 13.987306 13.800901 14.313404 13.572266 14.644531 C 13.351514 14.967775 13.096395 15.295825 12.804688 15.626953 C 12.520864 15.950197 12.225444 16.268625 11.917969 16.583984 C 12.107185 16.560331 12.316286 16.541157 12.544922 16.525391 C 12.781442 16.501737 12.98859 16.490234 13.169922 16.490234 L 14.683594 16.490234 L 14.683594 17.957031 L 9.3984375 17.957031 L 9.3984375 16.962891 C 9.8793614 16.513503 10.316738 16.0953 10.710938 15.708984 C 11.113021 15.314785 11.456411 14.948387 11.740234 14.609375 C 12.031942 14.262479 12.256383 13.944051 12.414062 13.652344 C 12.579626 13.352752 12.662109 13.068837 12.662109 12.800781 C 12.662109 12.430234 12.568122 12.150153 12.378906 11.960938 C 12.18969 11.763838 11.928784 11.666016 11.597656 11.666016 C 11.321717 11.666016 11.078102 11.744664 10.865234 11.902344 C 10.652367 12.05214 10.450935 12.22861 10.261719 12.433594 L 9.3164062 11.5 C 9.6869539 11.1058 10.064856 10.810381 10.451172 10.613281 C 10.837487 10.408297 11.297873 10.304687 11.833984 10.304688 z " />
</svg>
