<?xml version="1.0" encoding="UTF-8" standalone="no"?>
<svg
   viewBox="0 0 24 24"
   version="1.1"
   id="svg92"
   xmlns="http://www.w3.org/2000/svg"
   xmlns:svg="http://www.w3.org/2000/svg">
  <defs
     id="defs96" />
  <path
     id="path90"
     d="M 12 2.6132812 C 11.645 2.6132812 11.290078 2.78586 11.080078 3.1308594 L 1.1601562 19.359375 C 0.72015718 20.079373 1.2400799 21 2.0800781 21 L 21.919922 21 C 22.75992 21 23.279842 20.079373 22.839844 19.359375 L 12.919922 3.1308594 C 12.709922 2.78586 12.355 2.6132812 12 2.6132812 z M 11.875 10.304688 C 12.261316 10.304688 12.612375 10.352658 12.927734 10.447266 C 13.250978 10.53399 13.523389 10.668278 13.744141 10.849609 C 13.972776 11.023057 14.1512 11.235994 14.277344 11.488281 C 14.403488 11.740569 14.464844 12.032154 14.464844 12.363281 C 14.464844 12.757481 14.355517 13.091248 14.134766 13.367188 C 13.921898 13.635243 13.614974 13.857802 13.212891 14.03125 L 13.212891 14.078125 C 13.64651 14.204269 14.001404 14.42104 14.277344 14.728516 C 14.561167 15.028107 14.703125 15.421349 14.703125 15.910156 C 14.703125 16.257052 14.628311 16.569763 14.478516 16.845703 C 14.32872 17.113759 14.127288 17.342034 13.875 17.53125 C 13.622712 17.712582 13.327293 17.854539 12.988281 17.957031 C 12.64927 18.051639 12.290541 18.097656 11.912109 18.097656 C 11.297158 18.097656 10.775345 18.003669 10.349609 17.814453 C 9.9238735 17.617353 9.5728147 17.3584 9.296875 17.035156 L 10.101562 15.933594 C 10.330198 16.154346 10.579601 16.336604 10.847656 16.478516 C 11.123596 16.620427 11.42285 16.691406 11.746094 16.691406 C 12.116641 16.691406 12.412061 16.616593 12.632812 16.466797 C 12.853564 16.309117 12.962891 16.088511 12.962891 15.804688 C 12.962891 15.639124 12.932214 15.489497 12.869141 15.355469 C 12.813954 15.221441 12.712297 15.110161 12.5625 15.023438 C 12.412704 14.92883 12.207437 14.857851 11.947266 14.810547 C 11.687094 14.75536 11.351374 14.728516 10.941406 14.728516 L 10.941406 13.498047 C 11.280418 13.498047 11.560498 13.475041 11.78125 13.427734 C 12.009886 13.380428 12.192144 13.313284 12.326172 13.226562 C 12.468084 13.131955 12.565906 13.02451 12.621094 12.90625 C 12.684167 12.780106 12.714844 12.641983 12.714844 12.492188 C 12.714844 12.232016 12.636195 12.032537 12.478516 11.890625 C 12.320836 11.740829 12.09256 11.666016 11.792969 11.666016 C 11.524913 11.666016 11.281299 11.723537 11.060547 11.841797 C 10.847679 11.960057 10.623239 12.123141 10.386719 12.328125 L 9.5097656 11.263672 C 9.8566616 10.96408 10.219225 10.730017 10.597656 10.564453 C 10.983972 10.391005 11.409844 10.304688 11.875 10.304688 z " />
</svg>
