<?xml version="1.0" encoding="UTF-8" standalone="no"?>
<svg
   viewBox="0 0 24 24"
   version="1.1"
   id="svg92"
   xmlns="http://www.w3.org/2000/svg"
   xmlns:svg="http://www.w3.org/2000/svg">
  <defs
     id="defs96" />
  <path
     id="path90"
     d="M 12 2.6132812 C 11.645 2.6132812 11.290078 2.78586 11.080078 3.1308594 L 1.1601562 19.359375 C 0.72015727 20.079373 1.2400799 21 2.0800781 21 L 21.919922 21 C 22.75992 21 23.279842 20.079373 22.839844 19.359375 L 12.919922 3.1308594 C 12.709922 2.78586 12.355 2.6132812 12 2.6132812 z M 11.875 10.447266 L 14.003906 10.447266 L 14.003906 14.833984 L 14.867188 14.833984 L 14.867188 16.158203 L 14.003906 16.158203 L 14.003906 17.957031 L 12.384766 17.957031 L 12.384766 16.158203 L 9.1328125 16.158203 L 9.1328125 14.964844 L 11.875 10.447266 z M 12.408203 11.9375 C 12.313595 12.142484 12.215773 12.351585 12.113281 12.564453 C 12.010789 12.777321 11.903345 12.990257 11.792969 13.203125 L 10.798828 14.833984 L 12.384766 14.833984 L 12.384766 13.617188 C 12.384766 13.372784 12.392436 13.092703 12.408203 12.777344 C 12.42397 12.4541 12.439311 12.17402 12.455078 11.9375 L 12.408203 11.9375 z " />
</svg>
