<?xml version="1.0" encoding="UTF-8" standalone="no"?>
<!-- Created with Inkscape (http://www.inkscape.org/) -->

<svg
   width="2048"
   height="1117.0566"
   viewBox="0 0 2048 1117.0566"
   version="1.1"
   id="svg1"
   sodipodi:docname="favicon.svg"
   inkscape:version="1.3 (0e150ed6c4, 2023-07-21)"
   xmlns:inkscape="http://www.inkscape.org/namespaces/inkscape"
   xmlns:sodipodi="http://sodipodi.sourceforge.net/DTD/sodipodi-0.dtd"
   xmlns="http://www.w3.org/2000/svg"
   xmlns:svg="http://www.w3.org/2000/svg">
  <sodipodi:namedview
     id="namedview1"
     pagecolor="#505050"
     bordercolor="#ffffff"
     borderopacity="1"
     inkscape:showpageshadow="0"
     inkscape:pageopacity="0"
     inkscape:pagecheckerboard="1"
     inkscape:deskcolor="#d1d1d1"
     inkscape:zoom="1.5742207"
     inkscape:cx="113.70705"
     inkscape:cy="-6.9875843"
     inkscape:window-width="1920"
     inkscape:window-height="1057"
     inkscape:window-x="-8"
     inkscape:window-y="-8"
     inkscape:window-maximized="1"
     inkscape:current-layer="svg1" />
  <defs
     id="defs1" />
  <path
     id="path36"
     style="font-size:42.6667px;line-height:1.25;font-family:'Poiret One';-inkscape-font-specification:'Poiret One, Normal';fill:#ffffff;stroke:none;stroke-width:1"
     d="M 152.72154,0 C 1.307177,0 0,153.09949 0,153.09949 v 302.91329 205.03096 302.91354 c 0,0 1.305641,153.09932 152.72154,153.09932 H 473.37078 V 661.04374 0 Z m 430.80731,0 v 1117.0566 h 55.03596 V 0 Z M 693.64,0 v 1117.0566 h 55.0753 V 0 Z m 220.22952,0 v 1117.0566 h 55.07512 V 0 Z m 110.15028,0 v 1117.0566 h 110.119 V 0 Z m 220.2301,0 v 1117.0566 h 55.0752 V 0 Z m 220.2687,0 v 1117.0566 h 55.0359 V 0 Z m 110.1106,0 v 1117.0566 h 320.6575 C 2046.7014,1117.0566 2048,963.95728 2048,963.95728 V 153.09949 C 2048,153.09949 2046.6995,0 1895.2867,0 Z" />
</svg>
