<?xml version="1.0" encoding="UTF-8" standalone="no"?>
<!-- Created with Inkscape (http://www.inkscape.org/) -->

<svg
   width="511.99936"
   height="329.76669"
   viewBox="0 0 511.99936 329.76669"
   version="1.1"
   id="svg1"
   xmlns="http://www.w3.org/2000/svg"
   xmlns:svg="http://www.w3.org/2000/svg">
  <defs
     id="defs1" />
  <g
     id="layer1"
     transform="translate(1.153708,-61.006783)">
    <path
       id="path36"
       style="font-size:42.6667px;line-height:1.25;font-family:'Poiret One';-inkscape-font-specification:'Poiret One, Normal';stroke:none;stroke-width:1"
       d="M 40.533792 61.506783 C 3.0001942 61.506783 2.6763701 99.457955 2.6763701 99.457955 L 2.6763701 174.54585 L 120.01817 174.54585 L 120.01817 61.506783 L 40.533792 61.506783 z M 147.32481 61.506783 L 147.32481 174.54585 L 160.96739 174.54585 L 160.96739 61.506783 L 147.32481 61.506783 z M 174.61973 61.506783 L 174.61973 174.54585 L 188.27207 174.54585 L 188.27207 61.506783 L 174.61973 61.506783 z M 229.21153 61.506783 L 229.21153 174.54585 L 242.86387 174.54585 L 242.86387 61.506783 L 229.21153 61.506783 z M 256.51621 61.506783 L 256.51621 174.54585 L 283.81309 174.54585 L 283.81309 61.506783 L 256.51621 61.506783 z M 311.10801 61.506783 L 311.10801 174.54585 L 324.76035 174.54585 L 324.76035 61.506783 L 311.10801 61.506783 z M 365.70957 61.506783 L 365.70957 174.54585 L 379.35215 174.54585 L 379.35215 61.506783 L 365.70957 61.506783 z M 393.0045 61.506783 L 393.0045 174.54585 L 472.49082 174.54585 L 472.49082 338.40913 C 510.02442 338.40913 510.34629 300.45795 510.34629 300.45795 L 510.34629 99.457955 C 510.34629 99.457955 510.02459 61.506783 472.49082 61.506783 L 393.0045 61.506783 z M -1.153708 189.27045 L -1.153708 301.66694 C -1.153708 313.51503 2.8392756 323.28246 10.824808 330.96772 C 18.810302 338.49289 28.471691 342.25483 39.811136 342.25483 L 39.811136 335.53022 C 30.547936 335.53022 22.642442 332.32915 16.094339 325.92475 C 9.705921 319.52036 6.5123076 311.43359 6.5123076 301.66694 L 6.5123076 239.706 L 39.572854 239.706 L 39.572854 232.98139 L 6.5123076 232.98139 L 6.5123076 189.27045 L -1.153708 189.27045 z M 110.00645 230.09858 C 94.354834 230.09858 80.938104 235.69951 69.758401 246.90717 C 58.578754 257.95475 52.990767 271.25156 52.990823 286.78217 C 52.990767 302.31279 58.578754 315.67998 69.758401 326.88764 C 80.938104 337.93516 94.354834 343.456 110.00645 343.456 C 120.22793 343.456 129.80491 340.81386 138.74864 335.53022 C 147.69241 330.24665 154.39977 323.04121 158.87168 313.91499 L 158.87168 340.81733 L 166.5377 340.81733 L 166.5377 232.73725 L 158.87168 232.73725 L 158.87168 259.87983 C 155.19831 250.91369 148.65394 243.7102 139.23106 238.26655 C 129.96786 232.82277 120.22793 230.09858 110.00645 230.09858 z M 246.31895 230.34077 C 230.66732 230.34077 217.2506 235.94171 206.0709 247.14936 C 194.89119 258.19694 189.30332 271.48203 189.30332 287.01264 C 189.30332 302.54326 194.89119 315.92211 206.0709 327.12983 C 217.2506 338.17734 230.66732 343.69814 246.31895 343.69819 C 256.22094 343.69819 265.79794 341.05409 275.06114 335.77045 C 284.32428 330.48688 291.1142 323.44755 295.42637 314.64155 L 295.42637 330.72553 C 295.42637 347.21677 290.95798 360.18533 282.01426 369.63178 C 273.07049 379.23831 261.56875 384.04585 247.51426 384.04585 C 238.25106 384.04585 229.15139 381.48378 220.20762 376.3603 C 211.42359 371.23674 204.94996 364.82873 200.79746 357.1435 L 200.79746 368.19233 C 205.58881 374.91689 212.29616 380.3654 220.92051 384.52827 C 229.54485 388.69108 238.41075 390.77436 247.51426 390.77436 C 264.1241 390.77436 277.53887 385.406 287.76035 374.67866 C 297.98177 363.95131 303.09239 349.29819 303.09239 330.72553 L 303.09239 232.73725 L 295.42637 232.73725 L 295.42637 259.6396 C 291.1142 250.51336 284.40684 243.39003 275.30332 238.26655 C 266.35961 232.98291 256.70011 230.34077 246.31895 230.34077 z M 382.87168 230.34077 C 367.22007 230.34077 353.8053 235.94171 342.62559 247.14936 C 331.44589 258.19694 325.85801 271.48203 325.85801 287.01264 C 325.85801 302.54326 331.44589 315.92211 342.62559 327.12983 C 353.8053 338.17734 367.22007 343.69814 382.87168 343.69819 C 392.77368 343.69819 402.35262 341.05409 411.61582 335.77045 C 420.87902 330.48688 427.66888 323.44755 431.98106 314.64155 L 431.98106 330.72553 C 431.98106 347.21677 427.51272 360.18533 418.56895 369.63178 C 409.62517 379.23831 398.12148 384.04585 384.067 384.04585 C 374.80379 384.04585 365.70603 381.48378 356.76231 376.3603 C 347.97822 371.23674 341.50269 364.82873 337.3502 357.1435 L 337.3502 368.19233 C 342.14154 374.91689 348.84889 380.3654 357.47325 384.52827 C 366.0976 388.69108 374.96353 390.77436 384.067 390.77436 C 400.67684 390.77436 414.09356 385.406 424.31504 374.67866 C 434.53647 363.95131 439.64512 349.29819 439.64512 330.72553 L 439.64512 232.73725 L 431.98106 232.73725 L 431.98106 259.6396 C 427.66888 250.51336 420.95952 243.39003 411.85606 238.26655 C 402.91229 232.98291 393.25279 230.34077 382.87168 230.34077 z M 110.24668 236.8271 C 123.66232 236.8271 135.1543 241.78511 144.73692 251.71186 C 154.47923 261.63868 159.3541 273.40333 159.3541 287.01264 C 159.3541 300.46182 154.55972 312.1562 144.97715 322.08295 C 135.39452 331.84964 123.82206 336.72749 110.24668 336.72749 C 96.830995 336.72749 85.166258 331.84964 75.264261 322.08295 C 65.521948 312.1562 60.656839 300.46182 60.656839 287.01264 C 60.656839 273.56341 65.521948 261.88081 75.264261 251.95405 C 85.166258 241.86716 96.830995 236.8271 110.24668 236.8271 z M 246.55918 237.06928 C 260.13456 237.06928 271.70708 242.02724 281.28965 251.95405 C 290.87228 261.72073 295.66856 273.40333 295.66856 287.01264 C 295.66856 300.62197 290.87228 312.39838 281.28965 322.32514 C 271.70708 332.09181 260.13456 336.96967 246.55918 336.96967 C 233.14356 336.96967 221.47876 332.09181 211.57676 322.32514 C 201.83439 312.39838 196.96934 300.62197 196.96934 287.01264 C 196.96934 273.40333 201.83439 261.72073 211.57676 251.95405 C 221.47876 242.02724 233.14356 237.06928 246.55918 237.06928 z M 383.11387 237.06928 C 396.68919 237.06928 408.26171 242.02724 417.84434 251.95405 C 427.42697 261.72073 432.22129 273.40333 432.22129 287.01264 C 432.22129 300.62197 427.42697 312.39838 417.84434 322.32514 C 408.26171 332.09181 396.68919 336.96967 383.11387 336.96967 C 369.69823 336.96967 358.03345 332.09181 348.13145 322.32514 C 338.38914 312.39838 333.52403 300.62197 333.52403 287.01264 C 333.52403 273.40333 338.38914 261.72073 348.13145 251.95405 C 358.03345 242.02724 369.69823 237.06928 383.11387 237.06928 z " />
  </g>
</svg>
