<?xml version="1.0" encoding="UTF-8" standalone="no"?>
<svg
   viewBox="0 0 24 24"
   version="1.1"
   id="svg12"
   xmlns="http://www.w3.org/2000/svg"
   xmlns:svg="http://www.w3.org/2000/svg">
  <defs
     id="defs16" />
  <path
     id="path10"
     d="M 12 2 C 11.79 2 11.589686 2.0596877 11.429688 2.1796875 L 3.5292969 6.6191406 C 3.2092975 6.7891404 3 7.1200008 3 7.5 L 3 16.5 C 3 16.88 3.2092975 17.210861 3.5292969 17.380859 L 11.429688 21.820312 C 11.589686 21.940312 11.79 22 12 22 C 12.21 22 12.410314 21.940312 12.570312 21.820312 L 20.470703 17.380859 C 20.790703 17.210861 21 16.88 21 16.5 L 21 7.5 C 21 7.1200008 20.790703 6.7891404 20.470703 6.6191406 L 12.570312 2.1796875 C 12.410314 2.0596877 12.21 2 12 2 z M 11.869141 7.9082031 C 12.274873 7.9082031 12.643399 7.9572775 12.974609 8.0566406 C 13.3141 8.1477235 13.600184 8.2880697 13.832031 8.4785156 C 14.072159 8.6606813 14.258141 8.8854224 14.390625 9.1503906 C 14.523109 9.4153588 14.589844 9.7205883 14.589844 10.068359 C 14.589844 10.482372 14.474035 10.835191 14.242188 11.125 C 14.01862 11.406528 13.69573 11.638147 13.273438 11.820312 L 13.273438 11.869141 C 13.728852 12.001624 14.100816 12.229804 14.390625 12.552734 C 14.688714 12.867384 14.837891 13.281546 14.837891 13.794922 C 14.837891 14.159253 14.758887 14.485582 14.601562 14.775391 C 14.444237 15.05692 14.233718 15.297368 13.96875 15.496094 C 13.703782 15.68654 13.393161 15.835715 13.037109 15.943359 C 12.681058 16.042722 12.303702 16.091797 11.90625 16.091797 C 11.26039 16.091797 10.714712 15.993648 10.267578 15.794922 C 9.8204444 15.587915 9.4519184 15.3141 9.1621094 14.974609 L 10.005859 13.820312 C 10.245987 14.05216 10.507534 14.24158 10.789062 14.390625 C 11.078872 14.53967 11.392931 14.615234 11.732422 14.615234 C 12.121593 14.615234 12.432215 14.536231 12.664062 14.378906 C 12.89591 14.213301 13.011719 13.981683 13.011719 13.683594 C 13.011719 13.509709 12.978349 13.351702 12.912109 13.210938 C 12.854149 13.070173 12.74717 12.954364 12.589844 12.863281 C 12.432519 12.763918 12.216608 12.690307 11.943359 12.640625 C 11.670111 12.582665 11.319245 12.552734 10.888672 12.552734 L 10.888672 11.261719 C 11.244724 11.261719 11.537684 11.235227 11.769531 11.185547 C 12.009658 11.135867 12.201032 11.065694 12.341797 10.974609 C 12.490841 10.875246 12.594382 10.764829 12.652344 10.640625 C 12.718584 10.508141 12.751953 10.362403 12.751953 10.205078 C 12.751953 9.9318296 12.669511 9.7213103 12.503906 9.5722656 C 12.338301 9.4149408 12.097853 9.3359375 11.783203 9.3359375 C 11.501675 9.3359375 11.243567 9.3972806 11.011719 9.5214844 C 10.788152 9.6456883 10.553095 9.8159635 10.304688 10.03125 L 9.3847656 8.9140625 C 9.749097 8.5994127 10.129891 8.3555261 10.527344 8.1816406 C 10.933076 7.9994749 11.380605 7.9082031 11.869141 7.9082031 z " />
</svg>
