<?xml version="1.0" encoding="UTF-8" standalone="no"?>
<svg
   viewBox="0 0 24 24"
   version="1.1"
   id="svg12"
   xmlns="http://www.w3.org/2000/svg"
   xmlns:svg="http://www.w3.org/2000/svg">
  <defs
     id="defs16" />
  <path
     id="path10"
     d="M 12 2 C 11.79 2 11.589686 2.0596877 11.429688 2.1796875 L 3.5292969 6.6191406 C 3.2092975 6.7891404 3 7.1200008 3 7.5 L 3 16.5 C 3 16.88 3.2092975 17.210861 3.5292969 17.380859 L 11.429688 21.820312 C 11.589686 21.940312 11.79 22 12 22 C 12.21 22 12.410314 21.940312 12.570312 21.820312 L 20.470703 17.380859 C 20.790703 17.210861 21 16.88 21 16.5 L 21 7.5 C 21 7.1200008 20.790703 6.7891404 20.470703 6.6191406 L 12.570312 2.1796875 C 12.410314 2.0596877 12.21 2 12 2 z M 11.826172 7.9082031 C 12.215344 7.9082031 12.568163 7.9695461 12.882812 8.09375 C 13.205742 8.2096736 13.482996 8.3799486 13.714844 8.6035156 C 13.946691 8.8188023 14.123843 9.0783961 14.248047 9.3847656 C 14.372251 9.6911352 14.433594 10.035124 14.433594 10.416016 C 14.433594 10.747226 14.363421 11.087776 14.222656 11.435547 C 14.081892 11.775037 13.892471 12.117073 13.652344 12.464844 C 13.420496 12.804334 13.150119 13.148323 12.84375 13.496094 C 12.54566 13.835585 12.235039 14.170743 11.912109 14.501953 C 12.110835 14.477113 12.332138 14.457966 12.572266 14.441406 C 12.820673 14.416566 13.040023 14.404297 13.230469 14.404297 L 14.820312 14.404297 L 14.820312 15.943359 L 9.2675781 15.943359 L 9.2675781 14.900391 C 9.772674 14.428416 10.232471 13.989717 10.646484 13.583984 C 11.068777 13.169971 11.428473 12.783785 11.726562 12.427734 C 12.032932 12.063403 12.269942 11.728245 12.435547 11.421875 C 12.609433 11.107225 12.695312 10.808872 12.695312 10.527344 C 12.695313 10.138171 12.595211 9.8452106 12.396484 9.6464844 C 12.197759 9.4394779 11.925896 9.3359375 11.578125 9.3359375 C 11.288316 9.3359375 11.032161 9.4183792 10.808594 9.5839844 C 10.585027 9.7413093 10.372554 9.9272916 10.173828 10.142578 L 9.1796875 9.1621094 C 9.5688596 8.7480965 9.9673142 8.4374752 10.373047 8.2304688 C 10.77878 8.015182 11.263114 7.9082031 11.826172 7.9082031 z " />
</svg>
