<?xml version="1.0" encoding="UTF-8" standalone="no"?>
<svg
   viewBox="0 0 24 24"
   version="1.1"
   id="svg12"
   xmlns="http://www.w3.org/2000/svg"
   xmlns:svg="http://www.w3.org/2000/svg">
  <defs
     id="defs16" />
  <path
     id="path10"
     d="M 12 2 C 11.79 2 11.589686 2.0596877 11.429688 2.1796875 L 3.5292969 6.6191406 C 3.2092975 6.7891404 3 7.1200008 3 7.5 L 3 16.5 C 3 16.88 3.2092975 17.210861 3.5292969 17.380859 L 11.429688 21.820312 C 11.589686 21.940312 11.79 22 12 22 C 12.21 22 12.410314 21.940312 12.570312 21.820312 L 20.470703 17.380859 C 20.790703 17.210861 21 16.88 21 16.5 L 21 7.5 C 21 7.1200008 20.790703 6.7891404 20.470703 6.6191406 L 12.570312 2.1796875 C 12.410314 2.0596877 12.21 2 12 2 z M 11.689453 8.0566406 L 13.03125 8.0566406 L 13.03125 14.464844 L 14.509766 14.464844 L 14.509766 15.943359 L 9.4902344 15.943359 L 9.4902344 14.464844 L 11.205078 14.464844 L 11.205078 9.90625 L 9.7265625 9.90625 L 9.7265625 8.7773438 C 10.157136 8.6945412 10.522223 8.5944392 10.820312 8.4785156 C 11.118402 8.362592 11.407924 8.2222458 11.689453 8.0566406 z " />
</svg>
